<?xml version="1.0" encoding="UTF-8" standalone="no"?>
<svg
   xmlns:dc="http://purl.org/dc/elements/1.1/"
   xmlns:cc="http://creativecommons.org/ns#"
   xmlns:rdf="http://www.w3.org/1999/02/22-rdf-syntax-ns#"
   xmlns:svg="http://www.w3.org/2000/svg"
   xmlns="http://www.w3.org/2000/svg"
   xmlns:sodipodi="http://sodipodi.sourceforge.net/DTD/sodipodi-0.dtd"
   xmlns:inkscape="http://www.inkscape.org/namespaces/inkscape"
   id="world-map"
   width="1600"
   height="800"
   sodipodi:version="0.32"
   version="1.0"
   sodipodi:docname="World-map-colored.svg"
   inkscape:version="0.48.2 r9819">
  <sodipodi:namedview
     pagecolor="#ffffff"
     bordercolor="#666666"
     borderopacity="1"
     objecttolerance="10"
     gridtolerance="10"
     guidetolerance="10"
     inkscape:pageopacity="0"
     inkscape:pageshadow="2"
     inkscape:window-width="1680"
     inkscape:window-height="1002"
     id="namedview3035"
     showgrid="false"
     inkscape:zoom="1"
     inkscape:cx="771.68721"
     inkscape:cy="385.16635"
     inkscape:window-x="0"
     inkscape:window-y="0"
     inkscape:window-maximized="1"
     inkscape:current-layer="world-map" />
  <defs
     id="defs4" />
  <metadata
     id="metadata7">
    <rdf:RDF>
      <cc:Work
         rdf:about="">
        <dc:format>image/svg+xml</dc:format>
        <dc:type
           rdf:resource="http://purl.org/dc/dcmitype/StillImage" />
        <dc:title></dc:title>
      </cc:Work>
    </rdf:RDF>
  </metadata>
  <g id="layer1">
  <rect
     style="opacity:0.75862068;fill:#c0cfff;fill-opacity:1;fill-rule:nonzero;stroke:none"
     id="rect3963"
     width="1596.6471"
     height="799.0307"
     x="1.4142135"
     y="2.3835509" />
  <g transform="matrix(2.5690832,0,0,1.9686616,-151.20235,-226.65392)" />
  <path
     style="opacity:0.75862068;fill:#b3b3b3;fill-opacity:1;fill-rule:nonzero;stroke:none"
     d="m 436.29987,523.98075 c -1.40783,-1.55564 -3.41565,-2.82843 -4.46183,-2.82843 -1.04616,0 -1.90213,-0.67748 -1.90213,-1.50552 0,-3.23488 -8.73243,-8.80567 -14.58771,-9.30611 -3.25511,-0.27821 -9.73676,-2.37284 -14.40367,-4.65473 -6.47128,-3.16415 -10.33143,-4.11491 -16.26345,-4.00569 -5.85953,0.1079 -11.07079,-1.14762 -21.12637,-5.08981 -15.47501,-6.06681 -17.42931,-7.39378 -16.26979,-11.04709 0.61811,-1.94751 -0.82653,-4.27795 -5.27137,-8.50362 -3.36757,-3.2015 -8.70108,-8.26839 -11.85227,-11.25976 -3.1512,-2.99137 -6.37508,-5.43885 -7.16421,-5.43885 -0.78913,0 -2.86498,-2.54473 -4.61304,-5.65496 -5.2004,-9.25288 -12.89891,-11.73635 -12.89891,-4.16107 0,5.46944 -1.96883,4.33828 -5.85062,-3.3614 -3.80938,-7.55606 -7.31213,-10.8642 -11.50334,-10.8642 -2.96688,0 -11.42014,-6.91962 -11.06827,-9.06022 0.6039,-3.6739 -0.18253,-6.49613 -1.81021,-6.49613 -3.2375,0 -5.15476,-3.52736 -6.53851,-12.02945 -1.71209,-10.51941 -0.41798,-20.48163 2.66849,-20.54244 2.09337,-0.0413 2.09449,-0.18829 0.0141,-1.77319 -2.87726,-2.191 -4.86826,-8.08133 -2.73215,-8.08133 0.85464,0 1.92021,0.95459 2.36792,2.12132 1.41219,3.68011 4.75654,2.42825 4.72261,-1.76777 -0.0267,-3.30057 -5.50393,-12.9736 -5.59395,-9.87913 -0.055,1.89175 -17.09299,-7.45074 -18.02705,-9.88485 -0.49256,-1.28359 -2.92266,-4.11361 -5.4002,-6.28893 -3.58068,-3.14387 -4.35933,-4.75736 -3.79613,-7.86622 0.3897,-2.15109 0.19588,-3.43239 -0.43069,-2.84733 -1.42282,1.32854 -6.31851,-2.95276 -6.31851,-5.52558 0,-1.18028 -1.74422,-1.9445 -4.59619,-2.01378 -2.52791,-0.0614 -3.8007,-0.43264 -2.82843,-0.82496 2.59016,-1.04515 2.15627,-4.28642 -0.85777,-6.40782 -1.44406,-1.01638 -3.07226,-3.262 -3.61825,-4.99027 -0.84615,-2.67841 -1.38812,-2.89536 -3.67119,-1.46957 -2.19267,1.36935 -3.78083,1.07116 -8.75612,-1.64401 -3.3427,-1.82422 -6.73645,-4.12051 -7.54167,-5.10286 -0.80521,-0.98235 -5.86359,-2.25725 -11.24084,-2.8331 -5.37724,-0.57586 -12.35518,-2.21816 -15.50653,-3.64957 -7.00805,-3.1832 -13.81045,-3.52464 -13.21634,-0.66339 0.33998,1.63734 -8.69381,9.31242 -10.96096,9.31242 -2.23842,0 0.0718,-5.05618 3.91351,-8.565 l 4.55781,-4.16292 -3.90046,0 c -4.18834,0 -10.87202,3.66982 -10.87202,5.96952 0,0.77087 -1.62968,2.68349 -3.6215,4.25026 -1.99183,1.56677 -3.29824,3.6911 -2.90313,4.72073 0.42374,1.10425 -2.15248,3.93457 -6.28126,6.90081 -6.89775,4.95553 -10.59091,6.64665 -7.27594,3.33168 0.93338,-0.93338 1.69705,-3.42831 1.69705,-5.54429 0,-3.69401 -0.36865,-3.88671 -9.25647,-4.83852 -5.09106,-0.5452 -8.93183,-1.31593 -8.53504,-1.71272 0.39679,-0.39679 0.0949,-1.89214 -0.67088,-3.32299 -1.01935,-1.90469 -2.4266,-2.39588 -5.25354,-1.8337 -3.04529,0.6056 -4.75594,-0.16788 -8.095203,-3.66027 l -4.233972,-4.42813 3.035061,-5.21949 c 1.705654,-2.93327 4.179653,-5.25609 5.648184,-5.30306 1.43722,-0.046 4.40464,-0.84146 6.59428,-1.76777 2.18963,-0.9263 4.50803,-1.68419 5.15199,-1.68419 1.87631,0 3.10916,-4.58684 1.63033,-6.06567 -0.74253,-0.74253 -0.97739,-2.32122 -0.52191,-3.50818 0.67191,-1.75098 0.0508,-1.97449 -3.29249,-1.18476 -4.53077,1.07024 -17.45735,1.0868 -19.176073,0.0246 -0.596476,-0.36865 -0.728069,-1.59911 -0.292429,-2.73437 0.464148,-1.20955 -0.275359,-2.47372 -1.786208,-3.05349 -2.114785,-0.81152 -1.569139,-1.43617 3.03525,-3.47475 3.088318,-1.36734 5.82559,-1.8819 6.084936,-1.14386 0.716341,2.03854 9.572854,1.60179 11.367464,-0.56058 1.22414,-1.475 0.46918,-2.91162 -3.36238,-6.39825 -2.71752,-2.4729 -4.94095,-4.97242 -4.94095,-5.5545 0,-0.58207 -2.227391,-2.25785 -4.949752,-3.72393 -2.722361,-1.46609 -4.949748,-3.13371 -4.949748,-3.70583 0,-1.43234 3.787465,-2.75704 7.882711,-2.75704 2.528359,0 4.050799,-1.3367 5.894739,-5.17557 1.36731,-2.84657 3.4406,-5.67 4.60733,-6.27428 6.16583,-3.19351 11.97789,-5.52071 13.78765,-5.52071 1.12167,0 3.8363,-1.06145 6.0325,-2.35878 3.7281,-2.20224 4.23203,-2.20224 7.59307,0 1.97998,1.29733 5.08606,2.35878 6.90241,2.35878 1.81635,0 3.91561,0.61316 4.66503,1.36258 1.47674,1.47674 27.3792,5.70849 34.94157,5.70849 2.55441,0 5.89968,0.86724 7.43393,1.9272 1.53425,1.05996 4.69873,2.25541 7.03218,2.65656 2.33346,0.40115 7.59199,2.20929 11.68564,4.0181 l 7.44299,3.28873 2.19402,-3.1324 c 1.45487,-2.07712 3.47352,-3.04457 5.99203,-2.87173 2.08892,0.14336 6.58903,-1.17942 10.00027,-2.93952 4.55814,-2.35185 6.47861,-2.75301 7.24477,-1.51333 1.19025,1.92587 7.05908,-0.48314 7.05908,-2.89758 0,-3.36077 3.43157,-1.20057 7.51661,4.73174 2.40086,3.48653 13.40056,4.80608 14.57393,1.74832 1.17986,-3.07466 4.40697,-2.72357 12.44382,1.35379 3.82645,1.94129 8.72858,3.52961 10.8936,3.52961 6.96421,0 14.02903,4.45834 9.47194,5.97737 -0.99216,0.33072 -1.26546,1.60692 -0.67412,3.14791 0.88359,2.30262 2.19202,2.50113 11.73059,1.77973 5.90484,-0.44658 12.39414,-0.18158 14.42067,0.58891 2.97279,1.13025 4.04363,0.90987 5.54311,-1.14079 1.57457,-2.15336 1.48569,-2.81428 -0.58182,-4.32607 -1.34218,-0.98143 -2.15539,-1.78441 -1.80714,-1.78441 0.34825,0 2.67577,-0.58581 5.17226,-1.30179 3.67585,-1.05422 5.20914,-0.7747 8.06257,1.4698 4.35806,3.42805 18.25726,8.31727 23.64455,8.31727 3.27395,0 4.39764,-0.94626 6.17491,-5.19986 2.1697,-5.19282 1.33022,-7.44132 -2.80251,-7.50641 -0.75621,-0.0119 0.0781,-1.45355 1.85392,-3.20364 l 3.22885,-3.18198 2.85206,3.47423 c 2.62768,3.20091 2.66762,3.6091 0.50756,5.18857 -3.10495,2.27039 -2.20118,7.46132 1.75399,10.07442 2.87356,1.8985 3.25062,1.84837 4.09982,-0.54504 0.51438,-1.4497 2.17987,-4.02061 3.70108,-5.71312 1.52123,-1.69251 2.3262,-3.78867 1.78884,-4.65814 -0.53736,-0.86947 -0.13109,-2.60009 0.90272,-3.84581 1.59543,-1.92237 1.4761,-2.50125 -0.78893,-3.82714 -1.46778,-0.8592 -4.25243,-2.87468 -6.18812,-4.47886 -3.35544,-2.78078 -3.42942,-3.16556 -1.58778,-8.25856 3.18273,-8.80166 5.73253,-8.89815 11.62768,-0.44003 4.31713,6.19403 4.82032,7.65169 3.20056,9.27145 -1.61975,1.61976 -0.94547,2.94101 4.28878,8.40377 5.81208,6.06583 6.3326,6.31511 8.1103,3.88398 2.59285,-3.54593 5.24392,-1.53911 4.28705,3.24522 -0.99097,4.95486 3.27827,10.76054 6.89286,9.3735 1.35436,-0.51972 2.46248,-1.85143 2.46248,-2.95935 0,-1.10792 0.9546,-2.38071 2.12132,-2.82843 1.52276,-0.58433 2.12133,-2.96605 2.12133,-8.44089 0,-7.15128 0.21609,-7.62687 3.46526,-7.62687 1.90589,0 3.97418,0.84348 4.59619,1.87441 0.62201,1.03093 2.24463,2.28375 3.60581,2.78404 2.693,0.9898 3.32736,4.54725 1.06066,5.94815 -2.09959,1.29762 -1.71407,5.1028 0.79825,7.87888 2.03563,2.24936 1.82995,2.73649 -2.57347,6.09516 -4.24004,3.23403 -5.27516,3.46575 -9.075,2.03147 -5.03662,-1.90111 -9.59435,-0.63582 -8.45016,2.3459 0.43565,1.13526 0.18348,2.44024 -0.56037,2.89996 -0.74385,0.45973 -1.35246,2.27836 -1.35246,4.04142 0,3.87752 -5.47722,9.35544 -9.35424,9.35544 -3.46721,0 -6.20211,2.58516 -6.20211,5.86253 0,1.35763 -1.72101,3.29864 -3.82448,4.31335 -2.10346,1.01472 -5.92184,4.59909 -8.48528,7.96528 -3.81141,5.00496 -4.6608,7.38897 -4.6608,13.08148 0,6.3415 0.2925,6.96113 3.28611,6.96113 2.62119,0 3.55167,1.07311 4.59846,5.3033 1.24559,5.03359 1.57235,5.28079 6.4251,4.86063 3.72744,-0.32272 7.68629,0.92263 14.61087,4.5962 5.40964,2.86986 11.52843,5.03886 14.21477,5.03886 7.85741,0 9.19059,1.1086 9.19059,7.64247 0,4.99568 0.84164,6.74749 5.36293,11.1624 5.55558,5.42488 7.365,6.33283 7.365,3.69568 0,-0.8476 1.3691,-2.6497 3.04244,-4.0047 2.95269,-2.39095 2.97614,-2.65822 0.79464,-9.06055 -2.24195,-6.57976 -2.23909,-6.59911 1.09612,-7.4362 6.07735,-1.52532 8.12098,-5.22176 7.0042,-12.66898 -0.55082,-3.67317 -2.14009,-7.81707 -3.53169,-9.20867 -2.05307,-2.05307 -2.1566,-2.67353 -0.54908,-3.2904 1.5032,-0.57683 1.86802,-3.15188 1.51236,-10.67458 l -0.46874,-9.91437 7.92425,0.4187 c 8.10572,0.42828 14.28819,2.71239 14.28819,5.27875 0,0.79092 1.90919,2.10358 4.24264,2.91702 3.68704,1.28531 4.24265,2.16685 4.24265,6.73155 0,4.18034 0.85436,5.88421 4.18537,8.34693 2.30196,1.70191 5.00665,3.09201 6.01041,3.0891 3.69677,-0.0107 11.01742,-5.63153 11.01742,-8.45921 0,-4.62302 1.80182,-3.32048 7.37509,5.33151 3.61403,5.61042 5.00034,9.12518 4.44174,11.26128 -0.62516,2.39057 0.0372,3.49226 2.87795,4.78657 2.0295,0.9247 3.69,2.13831 3.69,2.69691 0,0.5586 1.90918,1.80645 4.24264,2.773 2.33345,0.96655 4.24264,2.34902 4.24264,3.07216 0,0.72314 2.14783,2.21223 4.77297,3.30908 7.79883,3.25856 5.75829,12.00354 -2.80088,12.00354 -1.35107,0 -3.65796,1.08732 -5.12643,2.41627 -2.14495,1.94113 -5.58744,2.43424 -17.50735,2.50772 -8.94233,0.0552 -15.23028,0.69652 -15.8262,1.61433 -0.54382,0.83756 -1.71473,1.77738 -2.60202,2.08846 -2.53738,0.88962 -14.65021,12.48945 -14.65021,14.02977 0,2.71317 5.21981,1.32514 8.59232,-2.28482 1.88567,-2.01845 5.14698,-4.56404 7.24735,-5.65686 4.40155,-2.29012 13.06001,-2.71261 11.7375,-0.57274 -0.48072,0.77782 -2.42747,1.41422 -4.32611,1.41422 -3.95926,0 -4.68292,2.77135 -0.97673,3.74053 1.36145,0.35603 3.15163,2.08037 3.97821,3.83186 1.43155,3.03343 0.91866,3.40691 -10.80882,7.87062 -9.29885,3.53934 -12.70788,5.55561 -13.93065,8.23932 -0.89043,1.95428 -1.21717,3.94829 -0.7261,4.43114 0.49107,0.48284 -2.18978,1.54581 -5.95746,2.36214 -5.21961,1.1309 -7.27947,2.37241 -8.65311,5.21535 -1.25934,2.60638 -2.66336,3.5654 -4.65757,3.18134 -3.69436,-0.71146 -6.05831,4.88897 -4.16528,9.868 0.84394,2.21976 0.82286,3.79591 -0.0581,4.34036 -0.76079,0.47019 -1.03438,1.41935 -0.60801,2.10926 0.42639,0.6899 -0.99512,2.33883 -3.1589,3.66428 -17.61653,10.79132 -18.22676,11.71278 -14.40958,21.7588 3.41977,9.0001 2.72324,13.05262 -1.57488,9.16287 -1.53936,-1.39315 -2.79888,-3.62133 -2.79888,-4.95153 0,-4.14415 -5.45604,-9.74062 -9.60045,-9.84753 -2.10901,-0.0544 -8.76732,-0.45046 -14.79622,-0.8801 -8.53973,-0.60858 -11.12647,-0.35166 -11.70764,1.16282 -0.56017,1.45978 -3.02561,1.79886 -9.898,1.36126 -6.04826,-0.38512 -9.15202,-0.057 -9.15202,0.96746 0,0.85261 -2.54424,2.8482 -5.65387,4.43461 -6.07005,3.09671 -5.69576,1.9148 -5.92645,18.71451 -0.16194,11.79256 7.14509,18.86463 18.96021,18.35055 8.58524,-0.37355 12.12387,-2.16083 13.26282,-6.69876 0.74809,-2.98062 1.70075,-3.49472 6.47596,-3.49472 5.15763,0 5.52059,0.25075 4.60583,3.18198 -0.54617,1.75009 -1.4394,3.50018 -1.98498,3.88909 -0.54557,0.38891 -1.74021,2.89222 -2.65476,5.56292 -2.13441,6.23309 -0.41127,7.51669 8.54191,6.363 3.6494,-0.47025 8.01829,-0.41606 9.70865,0.12049 2.7978,0.888 2.98879,1.61277 2.13035,8.08408 -0.81644,6.15459 -0.52048,7.55837 2.20513,10.45965 1.73148,1.84308 2.49944,3.35104 1.70659,3.35104 -0.79285,0 -2.5934,-1.27279 -4.00124,-2.82843 l 0,-5e-5 z m -7.19953,-121.48041 c 1.82221,-2.01353 2.19196,-3.96178 1.4761,-7.77767 -0.80363,-4.28368 -0.42547,-5.53244 2.38416,-7.87308 5.73586,-4.77843 7.54705,-3.77445 6.93014,3.84153 -0.26636,3.28834 1.90192,4.32147 3.5325,1.68314 0.58956,-0.95392 1.57021,-0.61828 2.69736,0.92316 2.40306,3.28639 5.02851,1.32825 5.02851,-3.75043 0,-3.49364 0.56575,-4.15917 3.53554,-4.15917 2.57162,0 3.53553,-0.75757 3.53553,-2.77868 0,-3.88435 -4.18794,-5.7066 -13.11505,-5.7066 -6.7202,0 -7.83318,-0.41489 -9.20811,-3.43253 -3.12065,-6.84906 -15.8959,-10.19748 -21.86691,-5.73135 -2.05885,1.53995 -6.32265,4.35974 -9.47513,6.2662 -3.15247,1.90644 -5.73177,3.9039 -5.73177,4.4388 0,0.53489 2.21057,1.38723 4.9124,1.8941 3.4488,0.64699 5.97689,0.22408 8.48528,-1.41947 2.17071,-1.42231 3.57289,-1.72221 3.57289,-0.76419 0,0.86728 0.47729,1.5015 1.06066,1.40939 3.29964,-0.52099 7.91416,0.35606 6.57566,1.24979 -3.23812,2.16216 -4.63627,7.14268 -3.8987,13.88805 1.13563,10.3858 4.64179,13.24345 9.56894,7.79901 z m 29.1555,-1.57436 c 3.06891,-1.56565 6.59176,-4.39102 7.82857,-6.27863 1.30965,-1.99878 3.09458,-3.10741 4.27424,-2.65473 3.20538,1.23001 9.07474,-3.41816 9.07474,-7.18664 l 0,-3.34505 -8.13173,3.29943 c -4.47245,1.81469 -9.00485,4.60744 -10.07199,6.20609 -1.06715,1.59866 -2.80021,2.90665 -3.85126,2.90665 -3.43943,0 -14.71458,6.17601 -14.71458,8.05998 0,2.84083 9.21629,2.24555 15.59201,-1.0071 z"
     id="path3037"
     inkscape:connector-curvature="0" />
  <path
     style="opacity:0.75862068;fill:#b3b3b3;fill-opacity:1;fill-rule:nonzero;stroke:none"
     d="m 600.4565,309.70041 c -1.49631,-1.13209 -4.89941,-2.46711 -7.56244,-2.9667 -3.81297,-0.71532 -6.16493,-2.70558 -11.06801,-9.36595 -3.42438,-4.65169 -6.22614,-9.59231 -6.22614,-10.97916 0,-1.38685 -0.9546,-2.88786 -2.12132,-3.33558 -1.25914,-0.48317 -2.12132,-2.60945 -2.12132,-5.23154 0,-2.42964 -1.12914,-5.85298 -2.5092,-7.60744 -1.99527,-2.53658 -2.35734,-4.89947 -1.76776,-11.53677 0.72538,-8.16621 0.83885,-8.35628 5.24339,-8.78298 3.661,-0.35465 4.66924,-1.19772 5.39745,-4.51325 1.6423,-7.47734 -3.68061,-12.7157 -7.83474,-7.71029 -0.99944,1.20426 -3.14565,1.99975 -4.76935,1.76777 -2.35077,-0.33588 -2.95218,-1.43015 -2.95218,-5.37155 0,-4.3917 0.39861,-4.92659 3.53553,-4.74435 1.94455,0.113 4.92431,0.65322 6.6217,1.20055 2.6473,0.85362 2.97295,0.56222 2.29005,-2.04922 -0.43787,-1.67439 -2.66861,-4.91684 -4.95721,-7.20543 -3.32094,-3.32096 -4.69253,-3.87667 -6.79326,-2.75239 -4.59651,2.45997 -5.02857,1.6512 -5.36811,-10.04848 -0.18288,-6.30145 -0.95674,-12.62358 -1.71969,-14.04916 -0.76295,-1.42559 -1.38719,-3.65593 -1.38719,-4.95631 0,-1.30039 -1.90918,-4.7749 -4.24264,-7.72112 -2.33345,-2.94621 -4.251,-6.21978 -4.26122,-7.27457 -0.0102,-1.0548 -3.66951,-3.66884 -8.13173,-5.80899 -8.63755,-4.14269 -22.30563,-5.39228 -25.37777,-2.32013 -1.14634,1.14633 -2.94494,1.11203 -6.70156,-0.12771 -4.04525,-1.33506 -4.95779,-2.25202 -4.30088,-4.32176 0.622,-1.95973 -0.35209,-3.25051 -3.83433,-5.08088 l -4.66815,-2.45378 5.3033,-2.05434 c 5.93031,-2.29723 6.67837,-3.87193 2.47337,-5.20654 -1.55646,-0.49401 -3.46076,-2.07691 -4.23179,-3.51758 -0.77102,-1.44067 -3.63412,-3.35611 -6.36246,-4.25654 -2.72833,-0.90043 -4.9606,-2.17214 -4.9606,-2.82602 0,-2.46059 1.76878,-5.66284 3.1279,-5.66284 0.7761,0 4.39232,-1.4974 8.03606,-3.32754 3.64374,-1.83014 9.14553,-4.13122 12.2262,-5.1135 6.90632,-2.2021 10.47825,-6.40197 10.51952,-12.36886 0.0334,-4.82999 -2.92461,-7.47437 -8.36086,-7.47437 -4.50716,0 -3.55057,-2.33249 4.40752,-10.746996 6.25447,-6.613183 7.88379,-7.627381 11.11378,-6.917956 3.20082,0.70302 4.04651,0.199609 5.48051,-3.262379 0.93261,-2.25152 1.2897,-5.711153 0.79352,-7.688073 -1.27541,-5.081646 5.92885,-10.229362 18.55791,-13.260337 l 9.90358,-2.376859 5.85617,3.875432 c 6.68193,4.421888 8.38506,3.977135 9.60156,-2.507327 0.84273,-4.492176 1.0357,-4.600201 8.1217,-4.546585 7.16992,0.05425 7.27655,-0.0086 8.74084,-5.159029 2.24167,-7.884662 8.41182,-13.367131 19.01483,-16.895587 5.11967,-1.703718 12.77842,-4.632237 17.01945,-6.507819 7.59177,-3.357442 7.9854,-3.384167 25.46703,-1.729085 15.37795,1.455915 18.45942,2.18011 23.00752,5.407151 2.88829,2.049348 5.98724,5.47342 6.88655,7.60905 1.14078,2.709051 3.32352,4.388821 7.21988,5.556198 3.07161,0.920279 6.50249,2.983484 7.62416,4.584897 1.84301,2.63126 1.73152,3.147016 -1.1576,5.355558 -3.98654,3.047432 -15.80037,5.614719 -23.92133,5.198388 -3.38016,-0.173286 -7.73673,0.589733 -9.68128,1.6956 -3.37539,1.919588 -3.13515,2.029739 5.3033,2.431702 7.54198,0.359261 8.83884,0.809159 8.83884,3.066316 0,4.465563 1.59472,7.11925 4.27828,7.11925 4.70832,0 7.03543,-1.687267 7.03543,-5.101052 0,-2.667035 0.74926,-3.384229 3.53553,-3.384229 5.03766,0 4.38855,2.835668 -2.09926,9.170844 -4.94078,4.824547 -9.80589,14.043644 -8.23834,15.61119 1.61957,1.619571 13.38725,-3.72227 18.21456,-8.268354 4.17619,-3.932886 6.38002,-5.047562 8.78579,-4.443753 2.26824,0.569293 4.15966,-0.203516 6.44073,-2.6316 2.89904,-3.085895 3.78807,-3.295787 8.68981,-2.051593 3.00321,0.762294 6.90877,2.927732 8.67903,4.812084 l 3.21864,3.426094 -8.62184,8.804552 c -8.21681,8.390917 -15.92656,20.258187 -18.12338,27.896437 -0.55925,1.94454 -1.811,4.49013 -2.78163,5.65686 -0.97064,1.16672 -2.16394,6.15177 -2.65177,11.07788 -0.78358,7.91238 -0.47617,9.65756 2.63681,14.96946 3.82641,6.52927 3.45279,8.28361 -1.49946,7.04067 -4.99578,-1.25386 -9.11416,1.71025 -9.11416,6.55972 0,3.22505 0.64141,4.19289 2.77868,4.19289 5.22773,0 7.16872,9.21389 3.64948,17.32411 -0.77058,1.77583 -0.43199,2.47488 1.19871,2.47488 4.03276,0 2.41636,2.56163 -2.67712,4.24264 -5.27665,1.74144 -6.28082,3.42925 -2.82842,4.75406 2.91839,1.11989 2.67369,3.7242 -0.35356,3.76267 -1.36118,0.0173 -3.99589,1.20095 -5.85491,2.63035 l -3.38006,2.59892 3.36381,3.3638 c 2.89293,2.89293 3.03001,3.4281 0.97928,3.82303 -1.31148,0.25257 -3.74516,-0.26898 -5.40818,-1.159 -5.41372,-2.89734 -4.85696,-0.0487 1.19588,6.11875 6.74759,6.87528 8.22816,13.7054 2.97094,13.7054 -1.98053,0 -3.47804,-1.39554 -4.5527,-4.24264 -1.77988,-4.71545 -6.25393,-5.77099 -7.4929,-1.76777 -0.42128,1.36118 -1.3559,3.57992 -2.07694,4.93055 -2.15165,4.03043 -1.55234,5.71549 1.72773,4.85774 3.35775,-0.87807 11.10489,0.30986 11.1009,1.70219 -0.008,2.92856 -27.07607,15.73313 -33.25837,15.73313 -2.92341,0 -13.40815,8.7498 -13.40815,11.18945 0,2.68827 -11.07468,8.41285 -18.03122,9.32048 -4.08354,0.53278 -7.42462,1.54537 -7.42462,2.2502 0,0.70483 -0.80008,1.2815 -1.77796,1.2815 -1.2314,0 -1.62694,1.89879 -1.28669,6.17686 0.4423,5.56118 0.0504,6.49077 -3.9317,9.32629 -3.31684,2.36179 -4.1981,3.85791 -3.52381,5.98242 0.90194,2.84175 -3.02922,15.32338 -4.7996,15.23901 -0.51903,-0.0247 -2.16795,-0.97124 -3.66427,-2.10333 l 0,0 z"
     id="path3039"
     inkscape:connector-curvature="0" />
  <path
     style="opacity:0.75862068;fill:#b3b3b3;fill-opacity:1;fill-rule:nonzero;stroke:none"
     d="m 418.97576,162.33325 c -2.52791,-0.31371 -4.5962,-1.38602 -4.5962,-2.38291 0,-2.09131 3.82058,-5.66318 7.42462,-6.94131 2.73551,-0.97011 3.24898,-3.14953 1.06066,-4.50198 -2.97497,-1.83864 -1.20339,-4.50683 3.88909,-5.85738 l 5.3033,-1.40646 -3.88909,-1.89838 c -5.13576,-2.50693 -4.90527,-4.64348 1.02862,-9.53469 4.77945,-3.93963 4.89255,-4.26592 4.02317,-11.60646 -0.67423,-5.69289 -1.53701,-7.72089 -3.50348,-8.23513 -2.9859,-0.78083 -3.13952,-1.6012 -1.23696,-6.60532 1.21685,-3.20055 1.79363,-3.44834 5.10036,-2.19112 2.93261,1.11497 4.67717,0.84787 8.17393,-1.251507 2.44507,-1.46796 6.24011,-3.092244 8.43342,-3.609519 4.64803,-1.096203 13.64684,-6.642354 13.67233,-8.426533 0.01,-0.674039 -1.73258,-0.829136 -3.87158,-0.34466 -2.139,0.484475 -12.32293,1.622695 -22.63096,2.529377 -18.5618,1.632676 -18.77429,1.618051 -22.11689,-1.522162 -4.93733,-4.638373 -5.73992,-10.800837 -2.1609,-16.591812 2.41495,-3.907465 3.81573,-4.765528 7.77967,-4.765528 3.6601,0 4.83522,-0.601157 4.83776,-2.474874 0.002,-1.533464 3.55216,-4.626666 9.33283,-8.131728 5.13122,-3.111269 10.78322,-7.367761 12.56,-9.458869 4.08604,-4.808886 16.35028,-8.270201 23.05374,-6.506419 2.83028,0.744691 6.69763,0.652011 9.8995,-0.237239 2.89005,-0.802653 7.16167,-1.462917 9.49247,-1.467255 6.35882,-0.01183 26.38005,6.967659 30.41041,10.601208 1.94454,1.753095 4.96742,3.923991 6.71751,4.824213 4.56497,2.348159 3.99641,4.391695 -3.18198,11.43675 -3.50018,3.435165 -6.39474,7.545143 -6.43235,9.133285 -0.041,1.729597 -3.6476,6.006667 -8.99383,10.665704 -4.90899,4.277996 -11.65884,11.745287 -14.99968,16.593978 -4.83961,7.02393 -7.02559,8.99428 -10.75477,9.69388 -6.25081,1.17266 -7.58182,3.10752 -8.98976,13.06824 -1.52986,10.82331 -3.35121,14.08966 -8.16537,14.64358 -2.77996,0.31987 -4.01809,1.35178 -4.33992,3.61709 -0.24765,1.74324 -1.79485,4.11131 -3.43821,5.26236 -2.81312,1.97039 -2.84883,2.24652 -0.61037,4.71999 3.27787,3.62202 2.98777,5.47495 -1.29672,8.28225 -2.85407,1.87006 -4.23987,2.05424 -6.20806,0.82509 -1.76875,-1.1046 -5.24964,-1.18975 -11.52853,-0.28198 -9.12556,1.31931 -11.0418,1.35259 -19.24778,0.33423 z"
     id="path3041"
     inkscape:connector-curvature="0" />
  <path
     style="opacity:0.75862068;fill:#b3b3b3;fill-opacity:1;fill-rule:nonzero;stroke:none"
     d="m 1541.8727,226.5387 c -0.2256,-0.0859 -0.3693,-0.30362 -0.561,-0.84994 l -0.173,-0.49303 0.1802,-0.14392 c 0.099,-0.0791 0.6028,-0.46542 1.1194,-0.85837 2.375,-1.80653 2.9403,-2.26643 3.2143,-2.6151 0.1839,-0.23396 0.1899,-0.23727 1.6554,-0.90648 l 1.4708,-0.67167 1.4996,0 1.4996,0 0.5956,0.74323 c 0.5075,0.63327 0.5889,0.75565 0.5507,0.82717 -0.068,0.12647 -0.054,0.38461 0.03,0.56362 0.1012,0.21607 0.4678,0.56273 0.8053,0.76142 0.4467,0.26301 0.4204,0.23731 0.3212,0.31339 -0.3039,0.23316 -1.9115,1.10858 -3.9797,2.16712 l -1.2277,0.62834 -0.755,-0.16071 -0.7551,-0.16072 -0.9879,0.2773 c -0.9077,0.25479 -1.0323,0.27916 -1.534,0.30015 -0.3004,0.0126 -0.9098,0.0844 -1.3543,0.15966 -0.9785,0.16565 -1.4076,0.19717 -1.6141,0.11854 z"
     id="path3090"
     inkscape:connector-curvature="0" />
  <path
     style="opacity:0.75862068;fill:#b3b3b3;fill-opacity:1;fill-rule:nonzero;stroke:none"
     d="m 1112.6322,525.73149 c -2.3346,-2.33454 -11.3971,-20.80663 -14.1026,-28.74494 -1.298,-3.80884 -2.3601,-9.09634 -2.3601,-11.75 0,-2.65367 -0.3715,-4.82485 -0.8257,-4.82485 -0.4541,0 -1.8825,1.125 -3.1743,2.5 -3.8211,4.0674 -10.3014,2.70048 -6.5979,-1.39175 2.2779,-2.51706 2.0051,-3.10825 -1.4342,-3.10825 -4.5752,0 -9.5356,-2.45971 -11.431,-5.66827 l -1.6933,-2.86649 -18.1718,-0.0621 c -18.645,-0.0638 -22.6718,-0.78612 -22.6718,-4.06715 0,-1.35061 -0.8006,-1.47982 -5.25,-0.84725 -7.3761,1.04867 -6.9739,1.09688 -13.1179,-1.57207 -3.9909,-1.73368 -5.9037,-3.22729 -6.7679,-5.28494 -1.2692,-3.02161 -6.19166,-6.62167 -9.06266,-6.62799 -1.61695,-0.004 -6.80152,4.05745 -6.80152,5.32755 0,0.33107 1.9125,2.80381 4.25,5.49498 8.09558,9.32043 9.74998,11.38299 9.74998,12.15524 0,0.42672 1.2675,1.30085 2.8166,1.94251 3.5185,1.45741 11.297,-0.0816 14.9548,-2.95886 2.9257,-2.30135 4.2286,-2.49146 4.2286,-0.61703 0,0.74146 1.9125,2.14534 4.25,3.11971 10.3736,4.32417 10.6215,4.78067 5.25,9.66859 -1.925,1.75171 -3.5,3.80174 -3.5,4.55563 0,0.75389 -0.7875,1.67283 -1.75,2.04209 -0.9625,0.36925 -3.6887,1.97969 -6.0582,3.57874 -2.3695,1.59906 -6.8695,3.5739 -10,4.38854 -3.1305,0.81465 -6.0516,2.11509 -6.4915,2.88987 -0.4398,0.77479 -1.5648,1.41819 -2.5,1.42979 -0.9351,0.0116 -4.85028,1.16726 -8.70028,2.56813 -6.84382,2.49021 -18.47072,5.41078 -21.5405,5.41078 -1.05867,0 -2.1038,-2.11351 -3.33788,-6.75 -1.98549,-7.45957 -6.36542,-13.69247 -12.12186,-17.25015 -3.02752,-1.87111 -3.49976,-2.68696 -3.49976,-6.04623 0,-2.83265 -0.52998,-4.16689 -1.95892,-4.93164 -1.07741,-0.57661 -5.12741,-4.70901 -9,-9.1831 -5.52075,-6.37826 -7.04108,-8.81724 -7.04108,-11.29567 0,-1.73852 -0.59506,-3.97474 -1.32235,-4.96937 -1.14221,-1.56206 -0.86411,-2.67137 2.04144,-8.1432 1.85008,-3.48413 3.62659,-8.5537 3.94778,-11.26571 l 0.584,-4.93093 -4.37544,-0.46584 c -3.45708,-0.36806 -4.86124,-0.0285 -6.69007,1.61805 l -2.31465,2.08388 -3.88347,-2.23505 c -4.62816,-2.66363 -5.7611,-2.74967 -8.1182,-0.61652 -3.91913,3.54676 -13.2175,-2.91123 -14.20892,-9.86852 l -0.53438,-3.75 4.96852,0 c 3.49396,0 5.13934,-0.44517 5.54411,-1.5 0.38284,-0.99767 1.96305,-1.50221 4.71862,-1.50659 2.45096,-0.004 5.36824,-0.81803 7.14301,-1.99341 3.89356,-2.5786 10.44552,-2.5786 15.5,0 7.60452,3.87953 25,1.93542 25,-2.79399 0,-2.40055 -1.75666,-3.90046 -10.75,-9.1788 -3.9875,-2.34033 -7.25,-4.57542 -7.25,-4.96686 0,-0.39145 1.11113,-1.75558 2.46918,-3.0314 1.35805,-1.27582 2.27216,-2.63846 2.03136,-3.02808 -0.24081,-0.38963 0.69844,-1.22613 2.08721,-1.8589 1.4511,-0.66116 2.23231,-1.6241 1.83679,-2.26407 -1.04264,-1.68702 -8.47745,-0.32757 -16.21431,2.96476 -7.075,3.01068 -12.86052,3.23224 -13.89663,0.53219 -0.78141,-2.03632 -6.12715,-1.66667 -9.04073,0.62515 -1.39842,1.1 -3.1569,2 -3.90773,2 -0.77073,0 -1.36514,1.03523 -1.36514,2.37756 0,1.30765 -0.675,2.93775 -1.5,3.62244 -0.825,0.68469 -1.5,2.08979 -1.5,3.12244 0,1.03266 -0.45965,1.87756 -1.02144,1.87756 -0.56179,0 -1.53605,1.12945 -2.16502,2.50989 -0.98303,2.15751 -0.81515,2.85949 1.19575,5 l 2.33934,2.49011 -2.24006,0 c -1.23203,0 -3.13923,0.48123 -4.23823,1.06939 -1.45306,0.77766 -2.3879,0.74596 -3.4267,-0.11616 -1.62981,-1.35263 -12.44364,-0.4077 -12.44364,1.08734 0,0.49316 -0.675,0.63764 -1.5,0.32106 -2.39053,-0.91734 -1.84591,3.49607 0.87098,7.0581 l 2.37098,3.10851 -4.12098,-0.36664 c -5.997,-0.53355 -12.62098,-7.39271 -12.62098,-13.06908 0,-1.47046 -2.38765,-3.39946 -8.93376,-7.21767 -6.05815,-3.53359 -9.11677,-5.94004 -9.50232,-7.47621 -0.31271,-1.24594 -1.58002,-2.58098 -2.81624,-2.96677 -1.23622,-0.38579 -2.51946,-1.1235 -2.85163,-1.63936 -0.33218,-0.51586 -2.24468,-0.63013 -4.25,-0.25393 -3.30047,0.61917 -3.64605,0.98996 -3.64605,3.91203 0,2.31714 0.91709,4.1333 3.25,6.43614 1.7875,1.76446 4.33379,4.31176 5.65841,5.66068 1.32462,1.34891 3.23712,2.45257 4.25,2.45257 1.01287,0 1.84159,0.39541 1.84159,0.87868 0,0.48327 1.36479,1.44399 3.03287,2.13494 2.87624,1.19137 2.9462,1.35203 1.35463,3.11069 -1.62274,1.79311 -1.83754,1.73998 -6.49567,-1.60655 -2.64958,-1.90354 -5.92605,-3.73923 -7.28103,-4.07931 -1.35498,-0.34008 -3.24147,-1.47785 -4.19219,-2.52839 -0.95072,-1.05053 -2.33384,-1.91006 -3.07359,-1.91006 -0.73976,0 -1.34502,-0.40241 -1.34502,-0.89424 0,-0.49184 -1.30554,-2.29184 -2.90121,-4 -3.64724,-3.90439 -7.32677,-4.0374 -14.27581,-0.51606 -4.66493,2.36391 -5.48023,2.4862 -9.35049,1.4026 -5.2558,-1.47154 -8.29018,-0.15383 -9.11237,3.95711 -0.40966,2.04829 -1.59869,3.30536 -4.26277,4.50669 -4.58786,2.06884 -9.4814,7.96729 -8.79321,10.59894 0.67115,2.56645 -6.54477,7.92838 -10.75114,7.98885 -1.67915,0.0241 -4.8459,0.68235 -7.03723,1.46269 -3.81507,1.35856 -4.09387,1.31374 -6.56685,-1.05552 -2.03854,-1.95305 -3.23202,-2.34444 -5.6651,-1.85782 -3.96187,0.79237 -4.56791,-0.90214 -4.74994,-13.28097 -0.16838,-11.45027 0.64651,-12.22221 11.21076,-10.61984 3.71545,0.56355 7.65121,0.70079 8.74614,0.30496 1.09493,-0.39582 3.1932,-0.37482 4.66284,0.0467 4.10696,1.17786 6.51982,-1.15403 7.85652,-7.5929 1.14453,-5.51314 1.13695,-5.54552 -2.18081,-9.32558 -1.879,-2.14081 -4.82092,-4.19233 -6.75338,-4.7094 -3.98467,-1.06619 -5.05116,-2.92789 -2.11684,-3.69524 1.12249,-0.29356 2.04089,-0.0987 2.04089,0.43301 0,0.53171 1.6875,0.82709 3.75,0.65639 2.85354,-0.23618 3.7168,-0.72872 3.61111,-2.06037 -0.1063,-1.33939 0.63115,-1.75 3.14302,-1.75 1.91521,0 3.5092,-0.59235 3.82774,-1.42244 0.30021,-0.78234 1.58585,-1.56984 2.85698,-1.75 1.27114,-0.18016 2.76115,-1.35538 3.31115,-2.61161 0.59028,-1.34821 2.47569,-2.72647 4.60164,-3.36384 2.20739,-0.66178 4.26566,-2.20389 5.31696,-3.98358 0.94342,-1.59709 2.16076,-2.6285 2.70519,-2.29202 0.54444,0.33648 2.0282,0.35118 3.29725,0.0327 1.83185,-0.45976 2.20829,-1.09742 1.82659,-3.09414 -0.43042,-2.2516 -0.15429,-2.51507 2.6358,-2.51507 1.71411,0 3.11657,-0.3876 3.11657,-0.86133 0,-0.47373 1.12759,-0.64577 2.50575,-0.38232 2.95001,0.56393 5.49425,-1.23224 5.49425,-3.87879 0,-2.43103 1.49221,-2.38535 4,0.12244 2.39818,2.39817 4.13132,2.50058 8.04742,0.47548 2.67174,-1.38161 3.18689,-1.36806 5.4954,0.14453 2.40341,1.57478 2.9979,1.54557 10.52395,-0.51697 7.27149,-1.99278 8.17121,-2.04976 10.17745,-0.64454 3.14595,2.20352 3.93536,1.99169 8.58939,-2.30489 3.65799,-3.37704 4.17027,-4.38373 4.19819,-8.25 0.047,-6.50956 3.13262,-9.82028 5.9682,-6.40361 1.28132,1.5439 6.55437,2.08553 7.30158,0.75 0.88173,-1.57598 -0.56985,-8.25 -1.79435,-8.25 -0.70068,0 -1.50523,-0.88435 -1.78788,-1.96521 -0.69025,-2.63952 2.01587,-3.46955 10.64638,-3.26547 4.36856,0.1033 7.89672,-0.3708 9.70034,-1.30349 1.55904,-0.8062 3.75696,-1.46583 4.88427,-1.46583 3.54422,0 2.19308,-4.47468 -1.45034,-4.80322 -1.1,-0.0992 -3.91605,-0.45665 -6.25788,-0.79435 -2.65251,-0.3825 -6.89469,0.0322 -11.25139,1.09984 -7.16301,1.75539 -10.10751,1.55035 -13.31978,-0.92749 -1.39121,-1.07314 -1.59255,-1.85275 -0.8411,-3.25685 0.69251,-1.29397 0.56135,-2.86055 -0.43859,-5.23871 -0.78459,-1.866 -1.17727,-4.17808 -0.87262,-5.13795 0.30465,-0.95987 4.13759,-5.16904 8.51764,-9.35372 8.40386,-8.029 9.88364,-11.40963 6.21372,-14.1955 -2.77132,-2.10373 -11.52781,-1.74796 -14.49887,0.58907 -2.61754,2.05896 -4.07693,7.29308 -2.47901,8.891 0.55851,0.55851 -1.37366,2.60367 -4.92662,5.21473 -11.38807,8.36907 -12.3455,9.60389 -12.3455,15.92223 0,4.92756 0.36579,5.96719 2.98116,8.47287 2.92085,2.79835 2.94074,2.88445 0.98327,4.25552 -1.09884,0.76965 -1.76923,1.76936 -1.48975,2.22157 0.27948,0.4522 -0.54795,1.51418 -1.83874,2.35993 -1.58839,1.04075 -2.95516,3.66167 -4.22893,8.10939 -1.50891,5.26877 -2.28102,6.57795 -3.89452,6.60344 -1.10687,0.0175 -2.88599,0.6925 -3.95362,1.5 -1.06762,0.80751 -2.26764,1.4682 -2.6667,1.4682 -0.64882,0 -3.42498,-5.36602 -8.36706,-16.17265 -0.92377,-2.01996 -2.34713,-3.92881 -3.16303,-4.2419 -0.8159,-0.31309 -3.93989,1.0021 -6.94219,2.92265 -5.86359,3.75089 -7.68136,4.10946 -11.12614,2.19469 -1.62246,-0.90183 -1.95727,-1.62013 -1.26531,-2.71456 1.43873,-2.27556 1.16794,-2.98823 -1.13543,-2.98823 -1.44231,0 -1.92915,-0.46343 -1.54325,-1.46907 0.31005,-0.80798 -0.089,-2.72048 -0.88685,-4.25 -2.47336,-4.74171 -1.82562,-7.27623 3.05465,-11.95235 2.48466,-2.38072 5.39929,-4.32858 6.47695,-4.32858 1.07766,0 2.69652,-1.125 3.59745,-2.5 0.90094,-1.375 2.46469,-2.5 3.47501,-2.5 1.03459,0 3.11747,-1.85637 4.7686,-4.25 1.6124,-2.3375 3.93322,-5.15 5.15738,-6.25 1.22416,-1.1 3.57762,-4.67587 5.22992,-7.94637 3.21668,-6.36698 9.20395,-14.88759 12.57631,-17.89759 1.13627,-1.01417 1.85947,-2.382 1.60712,-3.03961 -0.25892,-0.67476 1.07744,-1.75118 3.06744,-2.47077 3.26189,-1.17952 4.84089,-3.14566 2.52626,-3.14566 -0.55,0 -1,-0.675 -1,-1.5 0,-0.825 0.44653,-1.5 0.99229,-1.5 0.54575,0 2.14147,-1.28977 3.54604,-2.86616 1.95168,-2.19043 3.74792,-3.0076 7.61881,-3.46604 3.18365,-0.37706 6.31216,-1.55112 8.42254,-3.16078 2.33178,-1.77853 4.07715,-2.38027 5.71311,-1.96967 1.50886,0.3787 2.82229,0.0289 3.65386,-0.97306 1.67499,-2.01824 3.05335,-1.99832 3.05335,0.0441 0,1.21629 0.60948,1.45543 2.5,0.98094 1.44165,-0.36183 2.5,-0.19605 2.5,0.3916 0,1.94229 2.77777,1.00716 4.41058,-1.48483 l 1.64061,-2.50388 5.01142,2.53948 c 5.52307,2.79876 5.66445,4.46828 0.37837,4.46828 -1.89254,0 -3.44098,0.40114 -3.44098,0.89142 0,1.47712 8.10776,4.24691 11.92904,4.07523 6.12994,-0.2754 7.07096,-0.0305 7.07096,1.84002 0,1.41201 1.54574,2.17764 7.07613,3.50493 5.09923,1.22382 9.56819,3.3033 15.99631,7.44334 7.64209,4.9219 9.01031,6.22143 9.54918,9.06976 0.72623,3.8387 0.34265,4.30912 -5.28582,6.48249 -3.96148,1.52968 -4.64835,1.49073 -14.10872,-0.79998 -5.46948,-1.32436 -11.6023,-3.38606 -13.62849,-4.58154 -5.90124,-3.48182 -5.57759,-1.18379 0.65141,4.62522 5.53057,5.15768 5.75,5.5547 5.75,10.40387 0,4.92919 0.10588,5.10805 4.75,8.0244 2.70575,1.69912 6.14869,2.99102 8,3.00184 2.94867,0.0172 3.25,-0.25915 3.25,-2.981 0,-2.26812 -0.45805,-3 -1.87756,-3 -2.15945,0 -4.66493,-2.54669 -3.32202,-3.37666 0.49365,-0.30509 4.15362,0.36674 8.13326,1.49294 3.97965,1.12621 7.50326,1.78012 7.83024,1.45313 0.32699,-0.32699 -0.12476,-2.10288 -1.00388,-3.94643 l -1.59842,-3.3519 4.29743,-3.02911 c 3.9944,-2.81551 4.58498,-2.95236 8.37516,-1.9407 3.55268,0.94827 4.35122,0.84089 6.20187,-0.83392 1.48425,-1.34323 1.99966,-2.77047 1.71092,-4.73778 -0.31102,-2.11916 -0.0633,-2.68119 1.00168,-2.27252 0.77819,0.29862 1.60309,0.54295 1.83311,0.54295 0.23001,0 0.41821,0.62622 0.41821,1.39159 0,2.37629 5.00456,2.92089 8.67532,0.94406 2.43081,-1.30908 3.32468,-2.477 3.32468,-4.34402 0,-2.26827 1.14516,-3.07528 10.24998,-7.22333 6.6777,-3.04228 10.3912,-4.26339 10.6551,-3.50373 0.565,1.62621 4.3386,4.66207 5.8449,4.70216 0.6875,0.0183 1.25,-0.64173 1.25,-1.46673 0,-1.11354 1.1722,-1.5 4.5497,-1.5 2.5023,0 5.8284,-0.66127 7.3913,-1.46949 2.639,-1.36465 2.8785,-1.32898 3.3568,0.5 0.6191,2.36763 4.7022,2.73013 4.7022,0.41747 0,-0.85361 1.35,-2.02263 3,-2.59782 3.5805,-1.24815 3.6339,-1.66149 0.8296,-6.41449 l -2.1705,-3.67865 2.4205,0.77588 c 1.3312,0.42673 3.8957,1.11189 5.6988,1.52257 1.8031,0.41068 3.8335,1.20748 4.5121,1.77066 0.6786,0.56317 3.9283,2.02258 7.2217,3.24312 3.2933,1.22054 7.6276,3.50427 9.6317,5.07496 4.5089,3.53371 5.22,3.54742 6.7767,0.13069 1.0958,-2.405 0.9972,-2.92305 -0.8395,-4.41029 -1.1446,-0.92686 -2.0811,-2.15803 -2.0811,-2.73595 0,-0.57791 -0.954,-1.93956 -2.12,-3.02589 -1.8608,-1.73352 -1.9824,-2.37016 -0.9945,-5.20409 0.9133,-2.6198 0.8416,-3.54278 -0.3799,-4.89255 -2.263,-2.50057 -1.8288,-4.63977 1.4097,-6.94583 2.0694,-1.4735 3.883,-4.56329 6.25,-10.64767 3.1581,-8.1179 5.6533,-11.26083 7.8581,-9.89819 0.6406,0.39592 0.6334,1.25833 -0.021,2.48051 -1.3985,2.61315 -1.3617,2.68426 1.9973,3.85521 3.4531,1.20377 3.804,3.28979 1.4864,8.83669 -1.3515,3.2346 -1.3515,3.87005 0,5.9327 1.1067,1.68902 1.5136,5.10953 1.5136,12.72282 0,8.03582 0.3424,10.69691 1.5,11.65763 0.825,0.68469 1.5,2.56128 1.5,4.17019 0,3.11968 -2.7613,6.28307 -8.6742,9.93745 -1.8292,1.13051 -3.3258,2.43813 -3.3258,2.90583 0,0.46769 1.4232,1.86374 3.1626,3.10235 l 3.1627,2.252 3.5873,-2.05417 c 1.9731,-1.12979 5.0978,-4.01028 6.9438,-6.40109 2.9802,-3.85985 3.305,-4.8806 2.8987,-9.10957 -0.3837,-3.99349 -0.1587,-4.85751 1.3936,-5.3502 2.7757,-0.88097 2.2342,-2.20977 -1.2087,-2.96596 -4.2041,-0.92338 -5.3038,-4.15102 -3.221,-9.45333 1.4932,-3.8013 1.4892,-4.37359 -0.052,-7.60597 -2.7994,-5.87024 -2.0477,-8.30005 3.0511,-9.86235 2.1045,-0.64485 2.162,-0.51944 1.1257,2.45338 -0.6191,1.77607 -0.7135,3.47532 -0.2179,3.92344 1.2812,1.15845 14.3047,4.46091 14.9696,3.79595 1.2268,-1.2268 -1.7615,-4.63767 -4.9993,-5.70623 -3.4377,-1.13455 -5.297,-3.4805 -3.5931,-4.53357 0.5036,-0.31125 1.7974,-0.0152 2.8752,0.65781 1.559,0.97366 2.2803,0.95743 3.5296,-0.0794 0.8636,-0.71673 1.3236,-1.70216 1.0222,-2.18984 -1.3549,-2.19225 5.6503,-0.61117 9.4331,2.12907 4.0769,2.95331 8.1929,3.32069 9.7096,0.86664 0.7601,-1.22979 -3.2188,-6.63531 -5.3917,-7.32496 -1.5175,-0.48164 -4.9,-9.17173 -3.9426,-10.1291 0.1664,-0.16644 5.7896,-1.2388 12.496,-2.38303 16.0155,-2.7325 15.5789,-2.53889 13.7409,-6.09315 -2.0808,-4.02391 -1.9564,-4.47492 2.5993,-9.41721 3.283,-3.56166 5.5867,-4.92394 11.8586,-7.01268 4.2812,-1.42578 8.776,-3.64819 9.9883,-4.93868 1.5847,-1.68678 3.6624,-2.48356 7.3914,-2.83443 2.8529,-0.26844 5.9746,-0.81996 6.9371,-1.22561 1.3463,-0.5674 1.75,-0.25149 1.75,1.36946 0,1.15885 0.1125,2.10036 0.25,2.09226 0.1375,-0.008 2.9473,-0.85652 6.2439,-1.88539 4.5075,-1.40678 5.9954,-2.33306 6,-3.73527 0.01,-1.43144 0.8773,-1.93671 3.7561,-2.17497 3.492,-0.28901 3.75,-0.53176 3.75,-3.52755 0,-2.66627 0.9932,-4.09138 5.7999,-8.32243 5.5897,-4.92024 5.8977,-5.05399 8.5,-3.69052 1.4851,0.7781 2.7001,1.58866 2.7001,1.80124 0,0.21258 -1.6148,1.38453 -3.5885,2.60433 -4.2136,2.60414 -3.2014,3.89713 3.0885,3.94529 2.2,0.0168 4.6571,0.44626 5.4603,0.95426 1.2597,0.7968 1.2253,1.18316 -0.25,2.81343 -0.9407,1.03939 -1.7103,2.19186 -1.7103,2.56105 0,1.29973 8.2847,0.66474 9.3898,-0.71969 1.4947,-1.87266 12.2297,-0.55973 16.0867,1.96748 3.2597,2.13584 5.541,6.98039 5.4819,11.64135 -0.037,2.95739 -1.1258,4.153 -11.0004,12.08428 -6.0273,4.84119 -12.2789,9.26236 -13.8924,9.82482 -2.8071,0.97858 -6.0656,4.65187 -6.0656,6.83784 0,1.58623 6.9157,1.08823 12.5,-0.90014 4.5278,-1.61218 4.9709,-2.04204 4.6919,-4.55179 -0.26,-2.33916 -0.026,-2.65186 1.5,-2.00466 0.9945,0.42175 3.6081,1.20786 5.8081,1.74691 2.2,0.53905 4.8304,1.40776 5.8453,1.93047 1.2107,0.6235 3.4683,0.53441 6.5642,-0.25904 2.8207,-0.72293 6.6036,-0.92675 9.4047,-0.50671 4.1081,0.61605 4.6858,1.00338 4.6858,3.14141 0,1.3413 0.3375,2.4391 0.75,2.43955 0.4125,4.5e-4 4.0662,0.69264 8.1193,1.5382 5.7358,1.19662 8.1185,1.29008 10.75,0.42163 3.4048,-1.12368 4.2273,-2.31938 2.3807,-3.46065 -0.55,-0.33992 -1,-1.49148 -1,-2.55902 0,-1.53212 0.7004,-1.94098 3.3249,-1.94098 4.6322,0 17.5843,4.56602 20.3666,7.17986 2.7267,2.56166 2.8791,4.55574 0.6977,9.1303 -1.5859,3.32566 -1.5588,3.45812 1.75,8.54811 5.0384,7.75079 8.8234,7.95504 12.2838,0.66285 1.5585,-3.28443 1.6899,-3.34372 4.3421,-1.96016 3.4758,1.81321 4.7552,1.79948 7.6265,-0.0819 1.4828,-0.97156 3.0671,-1.24246 4.3862,-0.75 1.1358,0.424 5.6688,0.62513 10.0732,0.44697 l 8.0081,-0.32394 -1.4295,-4.05179 c -1.9746,-5.59659 -1.8981,-5.80034 2.1774,-5.80034 2.8758,0 3.4842,-0.32013 3.001,-1.57924 -0.487,-1.26915 -0.066,-1.4759 2.143,-1.05292 1.512,0.28947 5.224,0.82861 8.249,1.19807 3.025,0.36946 7.1696,1.51828 9.2102,2.55292 2.305,1.1687 5.8083,1.88117 9.25,1.88117 5.3207,0 5.5398,0.10442 5.5398,2.63976 0,3.10461 2.4744,5.28384 6.05,5.32844 3.0319,0.0378 4.95,1.71402 4.95,4.32564 0,1.72512 0.4677,1.81866 5.25,1.05 7.7044,-1.23833 17.832,-0.75427 22.1737,1.05982 3.6392,1.52057 3.7718,1.74061 3.1255,5.1859 -1.0198,5.43575 0.9224,6.41366 12.4508,6.2693 5.225,-0.0654 11.6976,0.40494 14.3835,1.04525 4.1214,0.98252 5.1481,0.92478 6.5788,-0.36995 2.3637,-2.13914 3.0377,-1.92484 3.0377,0.96584 0,1.84621 0.5313,2.5 2.0314,2.5 1.1173,0 2.2904,0.675 2.607,1.5 0.7095,1.84883 4.3617,1.95164 6.7701,0.19057 1.5272,-1.11672 1.6385,-1.86086 0.7562,-5.05635 -1.3621,-4.93297 -0.6078,-5.17267 12.2012,-3.87719 9.017,0.91196 11.287,1.56615 19.4818,5.61434 12.3344,6.09319 20.8793,11.28796 25.1872,15.3122 2.9348,2.74159 4.5817,3.41154 9.7024,3.94676 4.6953,0.49075 6.9548,1.30836 9.4652,3.42491 3.782,3.18878 3.1649,4.71576 -2.3598,5.83914 -2.5773,0.52405 -3.4094,1.24363 -3.6343,3.14265 -0.1604,1.35463 -0.7674,3.41662 -1.349,4.5822 l -1.0574,2.11924 -5.399,-2.11924 c -3.4789,-1.36553 -5.3997,-2.70357 -5.401,-3.76224 -0,-2.03304 -2.023,-2.85699 -7.0062,-2.85699 -3.5027,0 -3.9423,-0.30804 -4.9958,-3.5 -0.6353,-1.925 -1.5004,-3.5 -1.9225,-3.5 -1.5067,0 -4.2603,3.89521 -3.5575,5.03234 1.9062,3.08431 -4.6349,8.96766 -9.9703,8.96766 -2.053,0 -2.5497,0.48702 -2.5497,2.5 0,1.54294 0.5678,2.5 1.4832,2.5 1.5713,0 6.4898,8.79705 5.8745,10.50702 -0.1993,0.55386 -2.3609,0.84807 -4.8035,0.6538 -2.4426,-0.19427 -6.1541,0.19322 -8.2477,0.8611 -4.0552,1.29366 -20.6431,10.29479 -23.5377,12.77231 -1.394,1.19312 -2.0235,1.23928 -3.2312,0.23695 -0.9712,-0.80601 -3.0048,-1.03045 -5.7688,-0.63667 -2.3478,0.3345 -5.7243,0.81303 -7.5034,1.06341 -1.779,0.25038 -4.1119,0.92478 -5.1842,1.49866 -1.0723,0.57388 -3.0675,1.04342 -4.4336,1.04342 -3.9295,0 -5.6476,1.04038 -5.6476,3.4199 0,1.21325 -1.3307,3.48079 -2.957,5.03897 -2.3617,2.26257 -2.7573,3.20639 -1.9649,4.68709 0.5458,1.01972 1.5891,1.85404 2.3184,1.85404 0.8898,0 1.1622,0.85766 0.8279,2.60637 -0.2907,1.52078 0.031,2.9333 0.7719,3.3913 0.8419,0.52038 0.1788,1.02461 -1.9677,1.49604 -3.3935,0.74536 -3.357,0.59537 -1.8411,7.56879 0.2062,0.94853 -0.7079,1.55264 -2.6875,1.77599 -3.8521,0.43462 -5.5,1.83552 -5.5,4.67555 0,1.51712 -0.7457,2.45862 -2.25,2.84086 -1.2512,0.31794 -3.4597,2.5855 -4.9754,5.10841 -4.1925,6.97893 -4.3963,6.79087 -7.3136,-6.74865 -2.0969,-9.73197 -1.3836,-16.06405 2.0641,-18.32308 1.3183,-0.86377 2.6698,-2.43024 3.0033,-3.48104 0.3335,-1.0508 1.3206,-1.91054 2.1935,-1.91054 0.8729,0 4.8549,-3.51748 8.8489,-7.81663 5.3305,-5.73774 8.3252,-8.13523 11.2601,-9.01455 3.6183,-1.08407 4.0639,-1.5867 4.6895,-5.28913 0.3801,-2.25017 1.5784,-4.97842 2.6627,-6.06278 2.7292,-2.72918 1.6698,-5.05936 -1.9111,-4.20359 -3.6239,0.86604 -5.272,2.22894 -5.272,4.35965 0,1.44137 -8.7716,8.02703 -10.6914,8.02703 -0.3072,0 -0.2976,-1.30467 0.021,-2.89927 0.5536,-2.76795 0.3995,-2.91646 -3.401,-3.2789 -2.1894,-0.2088 -5.8364,0.16829 -8.1045,0.83797 -4.7186,1.39324 -12.3853,8.29179 -14.3943,12.95218 -1.06,2.45887 -2.1231,3.23879 -5.0653,3.71625 -2.9659,0.4813 -3.995,0.21694 -5.0568,-1.29888 -0.7331,-1.04674 -2.1149,-1.8522 -3.0705,-1.78992 -0.9556,0.0623 -3.4309,-0.2126 -5.5005,-0.61085 -2.9681,-0.57114 -3.8916,-0.38925 -4.3713,0.86099 -0.4419,1.15147 -1.7377,1.52092 -4.737,1.35051 -2.2708,-0.12901 -7.8109,-0.14581 -12.3113,-0.0373 l -8.1826,0.19722 -11.6249,9.99152 c -6.3937,5.49533 -13.624,11.36695 -16.0674,13.04804 -5.9721,4.10895 -5.8562,6.458 0.3075,6.22909 0.6875,-0.0255 1.25,1.07672 1.25,2.44945 0,1.75779 0.4245,2.33299 1.4354,1.94507 0.7895,-0.30295 1.6168,-0.0136 1.8386,0.64301 0.2931,0.86781 1.4123,0.71592 4.0985,-0.55618 4.7274,-2.23874 5.7847,-2.20082 8.9927,0.32258 2.9779,2.34242 3.3778,5.59002 1.2056,9.7906 -0.7861,1.52012 -1.7553,5.66027 -2.1538,9.20034 -0.7224,6.41794 -0.7535,6.46921 -10.8207,17.80015 -11.2,12.60595 -16.3063,16.007 -20.2113,13.46175 -1.5143,-0.98705 -2.7924,-1.10651 -4.5,-0.42063 -2.7338,1.09804 -9.885,7.54043 -9.885,8.90527 0,0.50161 -2.025,1.98628 -4.5,3.29926 -5.1828,2.7495 -5.7611,5.11082 -1.98,8.08506 3.0643,2.41041 5.48,6.86453 5.48,10.10427 0,1.88606 -0.8917,2.74827 -4.1774,4.03891 -2.2976,0.90251 -4.4052,1.41315 -4.6836,1.13475 -0.2784,-0.2784 -0.5361,-3.08606 -0.5726,-6.23925 l -0.066,-5.73306 -3.3481,-0.32068 c -3.4296,-0.32848 -3.5729,-0.78585 -1.6818,-5.36827 0.557,-1.34972 -0.1527,-1.91778 -3.5336,-2.82816 -4.0652,-1.09463 -5.4732,-1.02118 -9.0916,0.47424 -1.36,0.56206 -1.6275,0.0919 -1.5,-2.63655 0.225,-4.81549 -2.6851,-4.77672 -10.0386,0.13376 -3.3322,2.22511 -6.7411,4.04566 -7.5754,4.04566 -3.101,0 -2.869,3.26232 0.4777,6.71524 2.9728,3.06715 3.6447,3.31868 7.2832,2.72648 l 4.0082,-0.65238 -3.0521,3.35533 c -5.8912,6.47632 -5.9181,6.56082 -2.6271,8.26267 1.6293,0.84254 3.4751,2.78306 4.1018,4.31228 0.6267,1.52921 1.7872,3.90538 2.579,5.28038 1.3542,2.35193 1.2902,2.55035 -1.081,3.35 -3.0258,1.02037 -2.6975,2.87641 0.6483,3.66626 4.0203,0.94906 3.3734,3.43133 -1.9527,7.49308 -2.7366,2.08693 -5.2407,4.8508 -5.5648,6.14193 -0.324,1.29112 -2.2748,3.41157 -4.335,4.71211 -2.0601,1.30053 -4.3161,3.05189 -5.0133,3.8919 -1.1341,1.36651 -4.2431,2.12414 -13.6284,3.32102 -1.6089,0.20519 -3.1839,0.77935 -3.5,1.27592 -0.7716,1.21216 -7.4688,2.26629 -16.3606,2.57511 -8.2088,0.28509 -11.8641,2.02826 -14.3554,6.84594 l -1.5391,2.97626 5.2772,4.61637 c 2.9025,2.539 6.1109,5.29536 7.1297,6.12524 1.373,1.11827 1.907,3.05429 2.063,7.47887 l 0.2105,5.97001 -5.25,1.51703 c -2.8875,0.83437 -5.25,2.06953 -5.25,2.74481 0,0.67527 -0.8698,1.69327 -1.9328,2.2622 -1.5636,0.83681 -2.051,0.66226 -2.5512,-0.91366 -0.34,-1.07145 -1.5043,-2.2293 -2.5871,-2.57298 -1.0829,-0.34369 -3.9888,-2.16671 -6.4575,-4.05116 -2.4688,-1.88444 -4.7419,-3.42626 -5.0515,-3.42626 -0.3095,0 -1.253,-0.69027 -2.0967,-1.53394 -1.7092,-1.70923 -5.3144,-1.07509 -6.6229,1.16493 -1.4359,2.45819 -2.3408,1.47214 -5.2259,-5.6946 -3.5042,-8.70453 -4.9683,-9.66913 -9.6358,-6.34817 -4.1388,2.94484 -7.1311,2.42529 -6.25,-1.08521 0.7893,-3.14476 -3.6873,-11.27668 -7.4761,-13.58083 -1.6585,-1.00856 -3.7238,-3.20364 -4.5896,-4.87796 -0.8658,-1.67432 -1.762,-3.04422 -1.9914,-3.04422 -0.2294,0 -1.92,0.88668 -3.7567,1.9704 -2.3765,1.40215 -4.8557,1.90684 -8.5967,1.75 -4.9241,-0.20644 -5.4604,0.0125 -8.4676,3.45746 -1.7657,2.02282 -5.0201,4.56701 -7.232,5.65374 -3.5011,1.72021 -12.4635,7.88543 -16.2411,11.17226 -0.6944,0.60421 -1.7107,0.82162 -2.2585,0.48311 -1.1953,-0.73878 -2.9278,3.45689 -2.208,5.34758 0.641,1.68404 -1.8239,12.16545 -2.861,12.16545 -0.4239,0 -0.9146,0.94144 -1.0903,2.09209 -0.1907,1.24821 -1.6239,2.63775 -3.5533,3.44487 -2.8084,1.17486 -3.4402,1.1463 -4.8036,-0.21717 z m -97.7127,-96.95008 c 1.9745,-0.52913 2.25,-1.252 2.25,-5.90301 0,-2.91502 -0.3905,-5.45003 -0.8678,-5.63337 -0.4773,-0.18333 -1.1995,-1.39907 -1.6049,-2.70164 -0.5517,-1.77248 -0.3963,-2.24675 0.6178,-1.88513 0.7452,0.26575 2.1564,0.0707 3.1361,-0.43355 1.6776,-0.86346 1.6547,-1.09432 -0.3946,-3.97226 -1.8691,-2.62496 -2.6402,-2.98014 -5.4719,-2.52061 -2.5206,0.40904 -3.1729,0.21327 -2.7718,-0.83193 0.289,-0.75314 -0.9723,-2.7343 -2.8092,-4.4125 -2.6244,-2.39772 -3.0405,-3.23782 -1.9556,-3.94889 0.758,-0.49677 1.0689,-1.40352 0.691,-2.01502 -0.4744,-0.76769 1.1366,-1.1118 5.2052,-1.1118 3.2408,0 6.1556,-0.26326 6.4774,-0.58501 0.9271,-0.92706 -1.1924,-6.05141 -3.287,-7.94693 -3.1148,-2.8189 -9.7432,-3.60673 -15.28599,-1.81685 -2.65173,0.85629 -5.06237,2.18507 -5.35699,2.95284 -0.29462,0.76777 -1.58189,1.39595 -2.86059,1.39595 -1.42486,0 -3.12556,1.12439 -4.39302,2.90437 -2.42722,3.40872 -2.5331,4.89674 -0.53629,7.53676 0.80751,1.06762 1.4682,2.70645 1.4682,3.64185 0,0.93539 2.05689,3.98847 4.57086,6.78461 l 4.57087,5.0839 -1.70192,2.88111 c -1.30526,2.20963 -1.47932,3.55539 -0.74683,5.77425 1.73846,5.2662 13.0662,8.90432 21.057,6.76286 l 0,0 z m 29.6849,-29.34496 c 1.4108,-0.53639 2.5651,-1.49928 2.5651,-2.13976 0,-0.64048 0.7816,-1.73597 1.7367,-2.43443 1.64,-1.19917 1.6302,-1.38769 -0.1763,-3.38387 -1.4666,-1.62059 -1.6386,-2.38849 -0.7367,-3.29032 0.647,-0.647 1.1763,-1.81246 1.1763,-2.58991 0,-1.86736 -8.9999,-0.6955 -10.6102,1.38154 -0.6107,0.7876 -1.7399,1.432 -2.5095,1.432 -3.2452,0 -4.6385,7.11305 -2.2037,11.25 0.6324,1.07444 7.7308,0.92582 10.7583,-0.22525 z m 56.5651,-6.52475 c 0,-0.825 0.9,-2.4 2,-3.5 1.6352,-1.63515 3.3334,-2 9.3089,-2 4.8783,0 7.9544,-0.48824 9.25,-1.4682 1.746,-1.32064 0.8557,-1.47139 -8.8585,-1.5 -14.7368,-0.0434 -19.9154,2.7582 -15.0454,8.13946 2.008,2.21882 3.345,2.35022 3.345,0.32874 z m 133.25,-31.06092 c 1.5125,-0.36074 2.75,-1.05107 2.75,-1.53407 0,-0.48299 1.4625,-1.49042 3.25,-2.23872 5.4942,-2.30002 10.4252,-8.66887 11.2273,-14.50108 1.1847,-8.61394 -1.4815,-8.99755 -5.6565,-0.81386 -3.1618,6.19763 -13.5546,15.57194 -18.0708,16.29985 -2.0625,0.33243 -3.75,1.0114 -3.75,1.50883 0,1.20559 4.1133,2.79247 6,2.31475 0.825,-0.20889 2.7375,-0.67496 4.25,-1.0357 l 0,0 z"
     id="path3092"
     inkscape:connector-curvature="0" />
  <path
     style="opacity:0.75862068;fill:#b3b3b3;fill-opacity:1;fill-rule:nonzero;stroke:none"
     d="m 869.2182,670.73873 c -1.89975,-1.09056 -2.47313,-2.27681 -2.54828,-5.27208 -0.0947,-3.77366 -0.70025,-4.83741 -11.23213,-19.73054 -1.22745,-1.73574 -3.09905,-6.54711 -4.15912,-10.69194 -1.31563,-5.14405 -3.54323,-10.05796 -7.01814,-15.48141 -2.79991,-4.36995 -5.08641,-8.62036 -5.08111,-9.44536 0.0162,-2.51738 4.81886,-11.99706 6.38196,-12.59688 0.80761,-0.30991 1.95253,-1.95227 2.54425,-3.64969 0.8585,-2.46269 0.75625,-3.57401 -0.50611,-5.50061 -0.87009,-1.32792 -1.3144,-3.1117 -0.98735,-3.96395 0.92064,-2.39916 -4.03305,-10.06748 -11.58416,-17.93229 -6.8737,-7.15927 -7.82341,-8.99166 -5.74007,-11.075 1.72436,-1.72436 1.92858,-10.99768 0.27246,-12.37214 -0.76498,-0.63488 -1.39088,-1.83885 -1.39088,-2.67548 0,-1.27419 -1.10268,-1.41868 -6.79164,-0.88994 -6.78177,0.6303 -6.7964,0.62615 -10.08124,-2.8564 -2.98587,-3.1656 -3.79966,-3.48762 -8.81375,-3.48762 -3.03827,0 -9.20262,1.12201 -13.69855,2.49335 -6.28589,1.91731 -8.9031,2.28436 -11.32855,1.58875 -2.86714,-0.82228 -9.24208,-0.31037 -18.93612,1.52058 -4.23576,0.80002 -20.0832,-7.25284 -23.76031,-12.07379 -1.40086,-1.83662 -4.13165,-4.31867 -6.06843,-5.51566 -1.93677,-1.19699 -3.52141,-2.80607 -3.52141,-3.57574 0,-0.76966 -1.08014,-1.67049 -2.40033,-2.00183 -1.8609,-0.46706 -2.50459,-1.42644 -2.86429,-4.26905 -0.27393,-2.16481 0.0572,-4.28099 0.80858,-5.16661 1.79982,-2.12152 2.97497,-12.56125 1.51549,-13.46326 -0.62744,-0.38778 -0.88734,-1.50365 -0.57755,-2.47971 0.31129,-0.98078 -0.11785,-2.33994 -0.95932,-3.03829 -2.32625,-1.93062 -1.83292,-4.34766 1.54747,-7.58165 1.68853,-1.6154 3.93214,-4.32988 4.98581,-6.03217 3.44835,-5.57109 8.36815,-9.94268 12.60172,-11.19751 2.28666,-0.67777 5.59887,-2.57869 7.36046,-4.22426 2.7093,-2.53087 3.11395,-3.49212 2.62572,-6.23755 -0.69494,-3.90789 2.42562,-8.04099 7.75111,-10.26612 1.87418,-0.78308 4.38697,-3.00845 5.58399,-4.94527 1.74275,-2.81983 2.52264,-3.33618 3.91413,-2.59148 0.95576,0.5115 4.63333,1.0284 8.17238,1.14866 5.10617,0.1735 8.2175,-0.43469 15.07029,-2.94592 7.90301,-2.89607 9.92705,-3.20677 23.85703,-3.66214 8.37175,-0.27368 15.54147,-0.69542 15.9327,-0.93722 0.39124,-0.2418 1.27097,1.10801 1.95497,2.99957 1.04872,2.90019 0.99882,3.78872 -0.31836,5.66927 -0.8591,1.22653 -1.562,2.71175 -1.562,3.30047 0,1.3029 8.37998,4.09685 16.3829,5.46217 3.23559,0.552 6.38559,1.67693 7,2.49983 0.6144,0.8229 4.40135,2.60772 8.41544,3.96625 8.63044,2.92091 11.64699,2.35819 12.68465,-2.36622 0.53735,-2.44654 1.42803,-3.27012 4.5473,-4.20467 3.16871,-0.94937 4.29939,-0.89317 6.17439,0.3069 6.2674,4.01137 24.51988,6.78833 31.76294,4.83245 3.20152,-0.86452 4.57126,-0.89549 4.83333,-0.10927 0.20115,0.60343 2.52312,1.09714 5.15994,1.09714 5.53348,0 7.58322,1.69594 6.63173,5.48701 -0.82689,3.29456 -1.98754,3.17148 -4.59262,-0.48701 -2.23241,-3.13513 -5,-4.01364 -5,-1.58714 0,1.74055 13.90609,23.13794 17.29349,26.6096 1.4833,1.5202 2.97952,4.83839 3.76564,8.35114 0.71742,3.20576 1.87635,6.04815 2.57541,6.3164 0.69906,0.26826 2.6328,2.60989 4.2972,5.20362 1.72273,2.68465 4.49258,5.41517 6.43072,6.3394 4.7988,2.28839 10.63754,7.64303 10.63754,9.75556 0,0.97977 1.19916,2.56712 2.66481,3.52745 3.70339,2.42655 17.53984,1.44277 29.10007,-2.06904 2.8121,-0.85426 2.5164,0.0639 -3.39836,10.55301 -4.74366,8.41232 -9.65263,12.98944 -20.61989,19.22597 -9.38459,5.33655 -19.0472,13.75138 -23.51189,20.47569 l -3.54501,5.33917 2.24952,2.39451 c 1.53426,1.63314 2.04193,3.0486 1.59662,4.45165 -0.42375,1.33512 0.24508,3.58947 1.90561,6.42294 1.97211,3.36516 2.55852,5.73525 2.55852,10.34084 0,5.22029 -0.34917,6.30957 -2.76417,8.62329 -1.5203,1.45654 -4.75509,3.35069 -7.18844,4.20922 -2.43334,0.85853 -6.79238,3.34892 -9.68675,5.53418 l -5.26248,3.97322 1.58109,3.75466 c 3.92009,9.30911 3.59249,10.48954 -3.67925,13.25756 -5.14094,1.95693 -5.97667,2.86243 -5.38479,5.83432 0.64906,3.259 -1.08508,8.16278 -2.88663,8.16278 -0.72651,0 -4.15012,3.15997 -7.60802,7.02216 -8.98422,10.03461 -13.64302,12.06467 -28.62056,12.47132 -4.4,0.11946 -9.575,0.51372 -11.5,0.87612 -2.27653,0.42858 -4.35689,0.16702 -5.95132,-0.74827 l 0,0 z"
     id="path3094"
     inkscape:connector-curvature="0" />
  <path
     style="opacity:0.75862068;fill:#b3b3b3;fill-opacity:1;fill-rule:nonzero;stroke:none"
     d="m 1401.9043,687.85523 c -2.6801,-2.08487 -2.8565,-2.09715 -5.731,-0.39911 -2.249,1.32851 -3.4379,1.4993 -4.9191,0.70661 -1.0742,-0.57493 -3.2203,-1.05964 -4.7689,-1.07713 -3.5567,-0.0402 -6.043,-1.91329 -8.1559,-6.14436 -1.0102,-2.02294 -2.5405,-3.44891 -3.9099,-3.64339 -1.5766,-0.22392 -2.25,-0.99706 -2.25,-2.58333 0,-1.24509 -0.3116,-2.57538 -0.6924,-2.95622 -0.3809,-0.38084 -0.8437,-1.68372 -1.0286,-2.89528 -0.6251,-4.09609 -2.0624,-4.16221 -5.9508,-0.27377 -3.3552,3.35518 -3.8855,3.58337 -4.8,2.06567 -2.5589,-4.24628 -5.4583,-6.41638 -11.0282,-8.25403 -5.621,-1.85452 -6.7511,-1.89838 -17.8909,-0.69446 -12.5495,1.35626 -16.7572,2.52867 -20.2466,5.64141 -1.5581,1.38997 -4.2684,2.06215 -10,2.48007 -5.2974,0.38626 -8.7284,1.17948 -10.5168,2.43139 -1.46,1.02196 -4.1723,1.8581 -6.0275,1.8581 -4.1421,0 -8.4959,-2.72223 -6.9024,-4.31573 2.1679,-2.16796 1.0484,-7.79609 -3.2732,-16.45425 -2.3965,-4.80151 -4.1558,-9.30208 -3.9095,-10.00127 0.2462,-0.69919 -0.027,-2.63385 -0.6078,-4.29925 -0.5806,-1.6654 -0.7902,-4.35489 -0.4658,-5.97664 0.8431,-4.21553 8.5213,-8.32155 19.6688,-10.51808 9.242,-1.82109 14.5073,-4.48677 16.1431,-8.17283 0.7363,-1.65906 1.5378,-2.04676 3.3113,-1.60165 1.8143,0.45536 2.4646,0.11027 2.8952,-1.53652 0.3055,-1.16808 1.0697,-2.12378 1.6982,-2.12378 0.6286,0 1.6983,-0.88943 2.3772,-1.97652 0.6789,-1.08708 3.1245,-2.9408 5.4347,-4.11936 l 4.2003,-2.14285 1.8511,2.28603 c 1.327,1.63882 2.9,2.28492 5.5559,2.28209 3.2386,-0.003 3.7071,-0.30625 3.724,-2.40668 0.011,-1.41409 0.6892,-2.53176 1.6474,-2.71629 0.8954,-0.17245 1.8571,-1.18944 2.1371,-2.25998 0.3782,-1.44622 1.3811,-1.94644 3.9026,-1.94644 1.8665,0 3.8797,-0.48605 4.4737,-1.08011 0.772,-0.77197 2.1841,-0.77356 4.95,-0.006 2.1285,0.59099 5.1934,1.07704 6.8111,1.08011 2.6518,0.005 2.767,0.13285 1.1712,1.29972 -2.6977,1.97262 -1.8279,7.80929 1.3876,9.3111 1.375,0.6422 5.4727,2.59358 9.106,4.3364 7.9599,3.81827 10.845,3.48146 13.2424,-1.54591 0.9084,-1.90497 1.6585,-5.81082 1.6669,-8.67966 0.016,-5.33865 1.2579,-8.77625 2.6634,-7.37071 0.4331,0.43309 1.481,2.67006 2.3288,4.97104 1.1612,3.15178 2.1519,4.26889 4.0169,4.52942 3.223,0.45022 4.9756,1.94718 4.9756,4.24987 0,4.36744 4.1931,10.50696 9.0347,13.22856 2.6536,1.49162 5.8026,4.29448 6.998,6.22859 1.6322,2.64092 2.6469,3.36624 4.0753,2.9129 1.2894,-0.40924 2.1266,-0.0179 2.5997,1.21531 0.3838,1.00042 2.8226,3.94393 5.4196,6.54114 4.0958,4.0961 4.8106,5.43253 5.3913,10.0799 0.932,7.46003 -0.3128,10.96409 -7.4293,20.91322 -3.5304,4.93564 -6.4348,10.13886 -6.7526,12.0975 -0.4862,2.99608 -1.0886,3.59562 -4.6972,4.67491 -2.2767,0.68094 -5.3339,2.08727 -6.7938,3.12517 -3.1675,2.25188 -2.6968,2.28077 -6.1109,-0.37506 l 0,0 z"
     id="path3096"
     inkscape:connector-curvature="0" />
  <path
     style="opacity:0.75862068;fill:#b3b3b3;fill-opacity:1;fill-rule:nonzero;stroke:none"
     d="m 482.57096,754.72115 c -0.33848,-0.88206 -1.21194,-1.60375 -1.94104,-1.60375 -1.62786,0 -2.72925,-3.13581 -1.87932,-5.35069 0.38681,-1.008 0.0129,-1.86786 -0.97732,-2.24787 -0.96578,-0.3706 -1.60376,-1.77876 -1.60376,-3.53981 0,-1.67698 -0.63983,-3.16993 -1.5,-3.5 -0.87208,-0.33466 -1.5,-1.83143 -1.5,-3.57561 0,-2.28368 0.3658,-2.85963 1.53202,-2.41211 1.49644,0.57424 2.12022,-0.40477 3.90184,-6.12391 0.50005,-1.60519 0.29446,-2.25 -0.71738,-2.25 -0.90504,0 -1.38179,-0.99519 -1.31739,-2.75 0.0803,-2.18791 0.53942,-2.7051 2.24629,-2.53033 1.80413,0.18473 2.55969,-0.89806 4.75,-6.80721 1.43254,-3.86478 2.60462,-7.8853 2.60462,-8.93449 0,-2.1274 -2.77085,-3.96773 -4.85494,-3.22453 -1.02887,0.36691 -1.15826,-0.0867 -0.53767,-1.88513 0.4495,-1.30257 0.83422,-4.88494 0.85494,-7.96083 0.0207,-3.07588 0.51994,-6.22588 1.10937,-7 3.35339,-4.40409 7.32462,-16.88907 7.92258,-24.90748 0.34863,-4.675 1.30651,-10.75 2.12862,-13.5 0.8221,-2.75 1.75545,-10.85 2.0741,-18 l 0.57937,-13 -11.58763,-6.39837 c -10.56639,-5.83448 -11.89242,-6.89206 -15.04608,-12 -6.09634,-9.87418 -14.73501,-21.10163 -16.23611,-21.10163 -1.1652,0 -3.40655,-3.64467 -3.40655,-5.53942 0,-0.22507 1.35,-1.10733 3,-1.96058 3.59585,-1.85949 4.36031,-6.08899 0.93883,-5.19425 -3.30926,0.86539 -3.72351,-2.25871 -0.6011,-4.53323 1.46425,-1.06663 2.66227,-2.47978 2.66227,-3.14032 0,-0.66054 1.35,-1.99845 3,-2.97313 1.65,-0.97468 3,-2.1967 3,-2.71561 0,-0.5189 0.65917,-0.94346 1.46482,-0.94346 2.28605,0 3.45048,-3.21265 2.83301,-7.81623 -0.43706,-3.25847 -0.0274,-5.21908 1.81903,-8.705 1.31073,-2.47461 3.17064,-4.75 4.13314,-5.05642 1.03439,-0.32931 1.75,-1.55187 1.75,-2.98974 0,-2.11994 0.45625,-2.43261 3.54966,-2.43261 1.95232,0 4.87732,-0.68656 6.5,-1.52568 3.23661,-1.67371 3.20649,-1.71424 3.36272,4.52568 0.0702,2.80412 0.48527,3.5 2.08762,3.5 1.48618,0 2.08022,-0.77074 2.31222,-3 0.17172,-1.65 0.95975,-3.5 1.75118,-4.1111 1.69231,-1.30674 6.30033,-0.67363 8.4366,1.15912 1.6833,1.44414 16.1957,2.17921 19.67641,0.99664 1.58943,-0.54001 2.66074,-0.17377 3.97224,1.35795 0.98771,1.15357 2.82083,2.09739 4.07359,2.09739 1.35801,0 2.27776,0.60569 2.27776,1.5 0,0.99469 0.99478,1.5 2.95295,1.5 4.01818,0 8.04705,1.97206 8.04705,3.93888 0,2.05606 9.69481,5.06112 16.328,5.06112 6.81878,0 16.672,5.05109 16.672,8.54662 0,1.67328 0.7307,2.78813 2.17841,3.32368 2.10032,0.77695 2.06447,0.87316 -1,2.68338 -4.76629,2.81552 -4.16405,8.44632 0.90338,8.44632 0.50501,0 0.91821,-0.9 0.91821,-2 0,-1.54124 0.66667,-2 2.90638,-2 2.41405,0 2.81778,0.33879 2.38337,2 -0.39787,1.52146 -0.0307,2 1.5346,2 1.13169,0 2.33573,-0.45 2.67565,-1 1.57209,-2.5437 12.29427,0.50452 13.14365,3.73663 0.39418,1.49996 1.80958,1.79332 9.47521,1.96384 8.19496,0.1823 9.57239,0.51056 15.19647,3.62149 3.40157,1.88156 7.98364,3.74515 10.18238,4.14131 4.3874,0.79051 5.46389,1.84648 5.48698,5.38236 0.0218,3.3403 -3.00692,7.1628 -10.47878,13.22505 l -6.50591,5.27853 -0.0318,7.0754 c -0.0208,4.63005 -0.53923,7.74627 -1.5,9.01652 -0.80751,1.06762 -1.4682,2.60014 -1.4682,3.40561 0,0.80546 -1.125,2.93943 -2.5,4.74215 -1.375,1.80272 -2.5,3.89229 -2.5,4.6435 0,1.78454 -5.59034,3.76761 -10.621,3.76761 -2.18845,0 -4.4065,0.39564 -4.929,0.8792 -0.5225,0.48356 -2.75,1.44718 -4.95,2.14138 -2.2,0.6942 -5.64595,2.55347 -7.65766,4.1317 -3.03916,2.38428 -3.77252,3.70465 -4.33692,7.80831 -0.37359,2.71633 -1.37635,5.51733 -2.22835,6.22442 -0.85199,0.7071 -2.68444,3.09224 -4.07211,5.30031 -1.38766,2.20807 -3.46396,4.67391 -4.61399,5.47964 -1.15003,0.80573 -4.11597,3.33385 -6.59097,5.61804 -5.44303,5.0234 -10.94494,6.24077 -18.25804,4.03986 -4.70942,-1.41733 -4.74196,-1.4111 -4.74196,0.90762 0,1.45649 0.75234,2.57353 2,2.96952 1.1,0.34913 2,1.35652 2,2.23865 0,0.88213 0.63891,2.3143 1.41979,3.18261 1.23282,1.37083 1.18562,1.86661 -0.35841,3.76467 -2.19976,2.70415 -12.85753,5.63054 -17.40152,4.77808 -3.20147,-0.6006 -3.25986,-0.54544 -3.25986,3.07939 0,4.41366 -2.63047,6.87296 -6.4,5.98354 -5.1018,-1.20377 -5.49348,-1.08378 -5.82225,1.78353 -0.17725,1.54576 0.19803,3.43738 0.83394,4.20361 0.8841,1.06527 0.8121,2.05123 -0.30592,4.18953 -0.80417,1.53801 -2.04299,4.03389 -2.75293,5.54639 -0.70994,1.5125 -2.0649,2.75 -3.01103,2.75 -0.94613,0 -2.76641,0.84714 -4.04506,1.88253 -2.07932,1.68373 -2.19431,2.16898 -1.08888,4.59513 0.67977,1.49193 2.57609,3.21845 4.21404,3.83671 4.07687,1.53885 3.73825,3.11645 -1.26079,5.87408 -2.33138,1.28607 -4.40706,3.21157 -4.6126,4.27891 -0.20555,1.06733 -1.72458,3.20249 -3.37562,4.74479 -2.94077,2.74709 -3.07741,3.65736 -1.227,8.1743 0.57214,1.39663 0.40686,1.75508 -0.63655,1.38049 -0.77514,-0.27828 -2.16395,0.15029 -3.08623,0.95237 -0.92229,0.80208 -3.17229,1.8165 -5,2.25426 -1.82772,0.43776 -4.10682,1.11948 -5.06469,1.51493 -1.15882,0.47842 -1.94749,0.18238 -2.35699,-0.88475 l 0,0 z"
     id="path3098"
     inkscape:connector-curvature="0" />
  <path
     style="opacity:0.75862068;fill:#b3b3b3;fill-opacity:1;fill-rule:nonzero;stroke:none"
     d="m 314.23922,244.64967 c -0.91383,-2.40356 -3.55664,-3.6438 -7.8197,-3.66967 -2.28722,-0.0139 -6.25,-3.19276 -6.25,-5.01365 0,-0.55 1.97005,-1 4.37788,-1 4.47781,0 11.62212,-2.36845 11.62212,-3.85291 0,-1.71242 -5.32825,-3.1482 -11.79705,-3.1789 -7.41659,-0.0352 -10.4073,-1.47075 -9.58833,-4.60249 0.37734,-1.44295 -0.19128,-2.30742 -2.08542,-3.17045 -2.18052,-0.99351 -2.43454,-1.5036 -1.56133,-3.13521 0.57359,-1.07176 1.49047,-2.22528 2.03751,-2.56337 0.54704,-0.33809 0.99462,-1.43686 0.99462,-2.44172 0,-1.90155 12.44333,-10.05495 15.34538,-10.05495 0.84881,0 1.78069,1.29751 2.15462,3 0.73878,3.36362 2.02695,3.72006 5.26008,1.45549 1.67622,-1.17407 2.68402,-1.28818 4.20199,-0.47579 1.09829,0.58778 3.08266,0.79619 4.40971,0.46312 1.38739,-0.34821 3.71246,0.0665 5.47086,0.9758 4.74191,2.45214 5.73595,1.98396 8.28379,-3.90156 2.16173,-4.99358 2.65837,-5.48445 5.56456,-5.5 4.40955,-0.0236 4.89251,1.40692 2.19301,6.49554 -2.2842,4.30575 -2.29344,4.44773 -0.59709,9.18039 0.94764,2.64386 1.72076,6.28534 1.71804,8.09219 -0.008,5.38484 2.44046,7.92086 9.99778,10.35486 4.70704,1.516 6.64906,2.60381 6.29513,3.52614 -0.28151,0.7336 -1.61901,1.33382 -2.97223,1.33382 -2.02454,0 -2.34525,0.3628 -1.8104,2.04799 1.65627,5.21842 -4.18196,6.37897 -11.47277,2.28061 l -4.7523,-2.6714 -2.89508,2.05328 c -2.58583,1.83395 -10.87295,4.0457 -21.6521,5.77874 -3.32026,0.53382 -3.86354,0.32388 -4.67328,-1.8059 l 0,0 z"
     id="path3100"
     inkscape:connector-curvature="0" />
  <path
     style="opacity:0.75862068;fill:#b3b3b3;fill-opacity:1;fill-rule:nonzero;stroke:none"
     d="m 505.16952,297.24482 c -0.825,-0.31 -2.64019,-1.36083 -4.03376,-2.33518 -1.39357,-0.97434 -4.24792,-2.09311 -6.34299,-2.48615 -2.74937,-0.51578 -4.32378,-1.56074 -5.6586,-3.75568 -1.2505,-2.05627 -3.73007,-3.81095 -7.65701,-5.4185 -6.30186,-2.57975 -8.63148,-2.85548 -14.92799,-1.76681 -4.99186,0.86309 -6.14942,-0.4117 -3.72864,-4.10627 1.64977,-2.51787 2.02983,-2.61632 7.81276,-2.02384 4.65146,0.47656 6.59965,0.25784 8.29777,-0.93157 2.13241,-1.4936 2.15313,-1.65508 0.53004,-4.13222 -1.64708,-2.51376 -1.61575,-2.64429 1.25967,-5.24804 5.32935,-4.82584 5.66635,-5.5524 4.53105,-9.76857 -0.69601,-2.5848 -2.02545,-4.43156 -4.05189,-5.62861 -1.6588,-0.97988 -3.48507,-2.65807 -4.05839,-3.72931 -0.57331,-1.07125 -1.92655,-1.94772 -3.0072,-1.94772 -1.21901,0 -1.96482,-0.67732 -1.96482,-1.78439 0,-0.98142 -1.36027,-2.58793 -3.02282,-3.57002 -1.66256,-0.9821 -3.73931,-2.87912 -4.61501,-4.21561 -1.92884,-2.94378 -3.92632,-3.11288 -5.3499,-0.4529 -1.86319,3.4814 -4.79411,4.39588 -7.79242,2.43131 -1.74827,-1.14551 -5.20322,-1.85091 -10.18294,-2.07905 -4.1453,-0.18991 -9.84591,-1.01373 -12.66803,-1.8307 -4.43345,-1.28343 -5.91541,-2.44403 -10.89932,-8.53585 l -5.7682,-7.05046 1.26992,-5.70617 c 1.02939,-4.62539 2.16704,-6.60583 6.00647,-10.45616 4.23396,-4.246 5.20265,-4.74678 9.1294,-4.71959 3.48156,0.0241 4.02836,0.24267 2.63582,1.05362 -2.78814,1.62369 -5.74297,8.43649 -5.74297,13.24127 0,4.19718 2.82055,9.6747 4.98182,9.6747 0.46016,0 0.8671,-3.25273 0.90433,-7.22828 0.0746,-7.97085 0.0107,-7.87319 9.06222,-13.84175 2.9453,-1.94213 4.78395,-2.59765 5.44157,-1.94004 0.96535,0.96535 1.6733,7.03303 1.61926,13.87831 -0.0251,3.18083 0.1269,3.32987 2.73211,2.67865 1.51728,-0.37927 4.19303,-0.92842 5.9461,-1.22034 1.75308,-0.29191 3.92975,-1.35102 4.83705,-2.35358 1.51037,-1.66893 1.99062,-1.70253 5.68832,-0.3979 2.22127,0.78371 5.30494,1.42493 6.85258,1.42493 2.52979,0 2.84525,0.37864 3.12428,3.75 0.29391,3.55116 0.55447,3.81026 4.91398,4.88647 5.64658,1.39394 8.11402,2.67139 13.89638,7.1944 6.22346,4.86804 8.83664,8.07782 8.28714,10.1791 -0.25681,0.98206 0.0247,2.70426 0.62567,3.82711 0.72118,1.34754 0.75174,2.2522 0.0899,2.66125 -0.55149,0.34083 -1.00271,1.91763 -1.00271,3.50398 0,3.64566 3.18442,5.99769 8.12027,5.99769 2.94074,0 5.09467,1.11061 10.77749,5.55711 3.90623,3.05642 7.10224,6.00377 7.10224,6.54966 0,2.45478 -3.20397,6.89323 -4.97599,6.89323 -1.05855,0 -2.35005,0.76019 -2.87001,1.6893 -0.82278,1.47022 -1.72227,1.01629 -6.93548,-3.5 -3.29455,-2.85411 -6.4711,-5.1893 -7.05899,-5.1893 -0.5879,0 -1.36474,1.57698 -1.72633,3.50441 -0.79348,4.22959 1.05596,7.49908 6.08427,10.75596 2.14526,1.3895 3.46247,3.04721 3.47015,4.36718 0.007,1.17016 0.68738,2.68776 1.51238,3.37245 0.825,0.68469 1.5,2.08979 1.5,3.12244 0,2.92775 -4.08869,2.34063 -11.29862,-1.62244 -7.15163,-3.93103 -7.70138,-4.07971 -7.70138,-2.08284 0,0.77944 2.5875,3.69807 5.75,6.48585 4.23018,3.72895 5.22137,5.05157 3.75,5.0039 -1.1,-0.0356 -2.675,-0.31844 -3.5,-0.62844 z"
     id="path3102"
     inkscape:connector-curvature="0" />
  <path
     style="opacity:0.75862068;fill:#b3b3b3;fill-opacity:1;fill-rule:nonzero;stroke:none"
     d="m 411.19551,185.82543 c -3.01071,-0.49891 -5.7845,-1.2338 -6.16399,-1.6331 -1.06589,-1.12152 -1.29921,-5.39165 -0.48479,-8.87239 0.90347,-3.86129 -1.31936,-9.71708 -4.29255,-11.30828 -3.07728,-1.64692 -2.53486,-3.04969 1.16534,-3.01371 3.72836,0.0362 8.75,3.88417 8.75,6.70482 0,4.42057 12.32743,7.97224 19.8318,5.71376 4.90784,-1.47705 16.04342,-0.6577 20.02552,1.47346 4.06169,2.17375 1.76421,9.20158 -3.43467,10.50642 -1.44321,0.36222 -4.14461,0.15674 -6.0031,-0.45661 -2.75227,-0.90834 -3.79511,-0.82381 -5.62182,0.45567 -2.53262,1.77392 -14.36957,1.98802 -23.77174,0.42996 l 0,0 z"
     id="path3104"
     inkscape:connector-curvature="0" />
  <path
     style="opacity:0.75862068;fill:#b3b3b3;fill-opacity:1;fill-rule:nonzero;stroke:none"
     d="m 400.90557,132.21635 c -3.47466,-5.13807 -4.07421,-7.69533 -2.74703,-11.71673 1.27437,-3.86137 0.68413,-5.52871 -4.13371,-11.67718 -3.69129,-4.71078 -3.81628,-9.729633 -0.35531,-14.267205 1.375,-1.802718 2.50615,-4.135193 2.51366,-5.183278 0.0544,-7.596686 4.32161,-8.931152 6.09087,-1.904786 1.40255,5.570043 6.55541,10.499177 10.97572,10.499177 1.84821,0 3.94136,0.930699 5.42109,2.410432 2.09505,2.09504 2.28536,2.84652 1.45455,5.74339 -1.49291,5.20547 -1.22229,5.77994 3.04411,6.46217 3.25937,0.52119 4,1.04658 4,2.8375 0,1.20883 -1.1444,3.27299 -2.54311,4.58701 -1.39871,1.31402 -4.42723,5.44246 -6.73006,9.17431 l -4.18695,6.78519 -5.13394,0 c -4.81504,0 -5.29145,-0.23293 -7.66989,-3.75 l 0,0 z"
     id="path3106"
     inkscape:connector-curvature="0" />
  <path
     style="opacity:0.75862068;fill:#b3b3b3;fill-opacity:1;fill-rule:nonzero;stroke:none"
     d="m 362.15735,135.91008 c -9.70748,-1.4307 -14.07125,-4.26031 -11.12061,-7.21095 1.92955,-1.92955 1.26553,-3.43645 -2.11722,-4.80469 -3.78297,-1.53012 -4.7784,-2.69049 -4.01489,-4.68017 0.40089,-1.04471 1.52834,-1.27025 4.15748,-0.83166 1.98408,0.33098 5.99084,0.88018 8.90391,1.22045 4.40421,0.51444 5.68849,1.14467 7.62324,3.74097 2.25162,3.02152 4.53011,13.75926 2.86471,13.50038 -0.43145,-0.0671 -3.26493,-0.48752 -6.29662,-0.93433 l 0,0 z"
     id="path3108"
     inkscape:connector-curvature="0" />
  <path
     style="opacity:0.75862068;fill:#b3b3b3;fill-opacity:1;fill-rule:nonzero;stroke:none"
     d="m 271.44903,167.65267 c -1.89755,-2.37019 -1.82457,-2.65224 1.07807,-4.16647 2.23774,-1.16737 2.96074,-1.89511 4.12811,-4.15514 1.27325,-2.46502 1.91685,-3.04596 6.41523,-5.79059 l 5,-3.0507 4.08572,0.11372 c 4.03322,0.11226 4.10027,0.094 5.21902,-1.41917 1.3167,-1.78093 1.75149,-1.85163 3.43441,-0.55852 l 1.23914,0.95213 -1.45909,1.16175 c -0.8025,0.63896 -1.81012,1.43422 -2.23915,1.76724 -0.69391,0.53863 -0.62392,0.89143 0.63383,3.19491 l 1.41389,2.58941 -2.60318,2.63591 -2.60317,2.63592 -2.37707,-1.46263 c -1.3074,-0.80444 -2.68472,-1.32463 -3.06071,-1.15597 -0.376,0.16866 -2.20962,2.07846 -4.0747,4.24399 l -3.39106,3.93733 -4.85894,-0.0362 c -4.70289,-0.035 -4.89496,-0.0812 -5.98035,-1.43692 z"
     id="path3129"
     inkscape:connector-curvature="0" />
  <path
     style="opacity:0.75862068;fill:#b3b3b3;fill-opacity:1;fill-rule:nonzero;stroke:none"
     d="m 311.98175,186.82882 c -0.59878,-0.13058 -1.35139,-0.55396 -1.67247,-0.94084 -0.47518,-0.57256 -0.15638,-0.91107 1.71369,-1.81962 1.26361,-0.61391 2.29747,-1.27203 2.29747,-1.46249 0,-0.70009 -4.61528,-5.45444 -5.29489,-5.45444 -0.38623,0 -1.57378,0.78739 -2.639,1.74976 l -1.93678,1.74976 -4.18966,-1.70578 c -2.30432,-0.93818 -4.13883,-1.93434 -4.0767,-2.21368 0.0621,-0.27934 1.71426,-3.41618 3.6714,-6.97076 l 3.55842,-6.46286 2.2583,0.4219 c 1.24206,0.23204 3.77634,0.87398 5.63172,1.42654 3.36458,1.00201 3.38164,1.01633 6.51568,5.46396 l 3.14227,4.45931 3.05462,0.31163 c 1.68004,0.17139 3.89837,0.43459 4.92962,0.58487 1.59125,0.2319 1.875,0.13283 1.875,-0.65463 0,-0.51034 -0.58463,-1.78825 -1.29918,-2.8398 -1.14318,-1.68234 -1.24097,-2.14128 -0.81436,-3.82199 0.46899,-1.84765 0.42974,-1.93974 -1.20081,-2.81785 -0.92711,-0.49928 -1.68565,-1.03383 -1.68565,-1.18788 0,-0.15405 1.11583,-1.37915 2.47963,-2.72243 2.77232,-2.73064 2.31127,-2.87628 3.91559,1.23688 0.33787,0.86625 2.21767,2.24569 6.04752,4.43781 3.05649,1.74947 5.54697,3.43384 5.53439,3.74305 -0.0126,0.3092 -0.41119,2.45129 -0.88582,4.7602 l -0.86295,4.198 -2.23918,0.68412 c -1.92809,0.58908 -2.84335,0.57613 -6.58796,-0.0932 l -4.34878,-0.77736 -5.05459,3.36537 c -4.61222,3.07084 -5.30373,3.3752 -7.90122,3.47763 -1.56565,0.0617 -3.33654,0.005 -3.93532,-0.12516 l 0,0 z"
     id="path3131"
     inkscape:connector-curvature="0" />
  <path
     style="opacity:0.75862068;fill:#b3b3b3;fill-opacity:1;fill-rule:nonzero;stroke:none"
     d="m 270.91849,220.91692 c -0.99801,-1.66855 -2.56107,-3.30697 -4.29255,-4.49949 l -2.72303,-1.87542 2.66081,-5.42155 c 3.28203,-6.68735 3.63208,-8.49256 2.47541,-12.76565 -0.5203,-1.92214 -0.69282,-3.41064 -0.42339,-3.653 0.25008,-0.22497 3.04815,-1.31782 6.21793,-2.42856 l 5.76323,-2.01952 2.9467,1.19885 c 2.28507,0.92966 3.87162,1.19885 7.06586,1.19885 l 4.11916,0 1.34962,2.125 c 0.76737,1.20823 2.73583,3.07045 4.56276,4.31649 1.76722,1.20532 3.11404,2.29058 2.99293,2.41169 -0.12111,0.1211 -3.87553,2.28493 -8.34316,4.80851 l -8.12296,4.58831 -1.12324,3.37762 c -0.61779,1.8577 -1.83581,4.48805 -2.70671,5.84523 -1.66212,2.59019 -1.36264,2.4332 -9.55863,5.01066 -1.17861,0.37064 -1.42809,0.17721 -2.86074,-2.21802 l 0,0 z"
     id="path3133"
     inkscape:connector-curvature="0" />
  <path
     style="opacity:0.75862068;fill:#b3b3b3;fill-opacity:1;fill-rule:nonzero;stroke:none"
     d="m 368.81377,179.30472 c -0.92296,-0.1446 -1.65321,-0.93055 -2.75,-2.95978 -2.42295,-4.48284 -2.72434,-4.62543 -6.23244,-2.94872 l -2.96822,1.41868 -1.03442,-1.20673 c -1.09519,-1.27763 -6.00825,-10.97789 -6.00825,-11.86258 0,-0.28646 0.39375,-0.61343 0.875,-0.7266 0.58341,-0.13719 2.39856,1.28763 5.44695,4.27563 2.6021,2.55057 4.81023,4.33413 5.125,4.1396 0.30418,-0.188 0.55305,-1.6263 0.55305,-3.19623 0,-2.64343 0.56495,-4.07064 2.7635,-6.98131 0.0601,-0.0796 1.60362,0.094 3.42997,0.38572 3.42477,0.54711 8.80245,3.38502 8.81032,4.64939 0.002,0.3353 0.22511,2.52214 0.49561,4.85964 0.43724,3.77836 0.3768,4.59679 -0.54456,7.375 l -1.03637,3.125 -2.83424,-0.0749 c -1.55883,-0.0412 -3.39973,-0.16351 -4.0909,-0.27179 l 0,0 z"
     id="path3135"
     inkscape:connector-curvature="0" />
  <path
     style="opacity:0.75862068;fill:#b3b3b3;fill-opacity:1;fill-rule:nonzero;stroke:none"
     d="m 376.05873,139.67037 c 0.21057,-0.3407 0.86373,-3.40226 1.45147,-6.80345 l 1.06861,-6.18399 3.73118,2.2123 c 4.25155,2.52085 5.25598,4.20063 4.5044,7.53303 -0.52145,2.31202 -0.86492,2.52747 -4.68017,2.9356 -1.68508,0.18026 -3.82756,0.46235 -4.76106,0.62687 -1.27585,0.22484 -1.60222,0.1453 -1.31443,-0.32036 l 0,0 z"
     id="path3137"
     inkscape:connector-curvature="0" />
  <path
     style="opacity:0.75862068;fill:#b3b3b3;fill-opacity:1;fill-rule:nonzero;stroke:none"
     d="m 388.19544,160.9306 c -2.32091,-2.64654 -2.66251,-3.44816 -2.09717,-4.92139 0.24142,-0.62915 0.71634,-0.63209 3.62492,-0.0224 2.74098,0.57456 3.71271,1.06044 5.3661,2.68312 1.22162,1.19893 2.49357,1.9815 3.22064,1.9815 1.13056,0 1.1471,0.0399 0.27969,0.67415 -0.50708,0.37078 -0.78076,0.90261 -0.60818,1.18185 0.18932,0.30632 -0.72239,0.63216 -2.29861,0.8215 -4.73788,0.56913 -4.94253,0.50357 -7.48739,-2.39833 l 0,0 z"
     id="path3139"
     inkscape:connector-curvature="0" />
  <path
     style="opacity:0.75862068000000005;fill:#b3b3b3;fill-opacity:1;fill-rule:nonzero;stroke:none"
     d="m 370.3873,217.02643 c -4.32557,-4.99986 -4.80841,-5.375 -6.91809,-5.375 -1.72876,0 -1.92041,-0.16304 -3.158,-2.68643 l -1.31754,-2.68642 1.23691,-0.56358 c 0.6803,-0.30996 2.68883,-0.56357 4.46339,-0.56357 3.76162,0 3.84433,-0.17965 1.72647,-3.75 -0.91877,-1.54889 -1.48619,-3.206 -1.49147,-4.35573 -0.008,-1.75193 0.1062,-1.88662 2.04272,-2.40807 1.54536,-0.41612 2.64806,-0.39938 4.47122,0.0679 2.07081,0.53073 2.72265,0.50132 4.51773,-0.20381 2.39219,-0.93967 2.67657,-0.84833 3.73583,1.20007 0.75882,1.4674 0.73908,1.52103 -1.50356,4.0847 -1.24986,1.42878 -2.27247,2.83515 -2.27247,3.12527 0,0.29012 1.39137,0.96899 3.09194,1.50859 3.07005,0.97415 3.09853,1.00058 4.02129,3.7311 1.42201,4.20787 0.45102,9 -1.82359,9 -0.35142,0 -2.1229,0.7875 -3.93663,1.75 -1.81373,0.9625 -3.39946,1.75 -3.52386,1.75 -0.12439,0 -1.63742,-1.63125 -3.36229,-3.625 l 0,0 z"
     id="path3911"
     inkscape:connector-curvature="0" />
  <path
     style="opacity:0.75862068;fill:#b3b3b3;fill-opacity:1;fill-rule:nonzero;stroke:none"
     d="m 391.42044,213.14814 c 0,-3.02799 -1.28539,-12.74495 -1.79502,-13.56955 -0.15112,-0.24452 -0.12267,-1.66186 0.0632,-3.14965 l 0.33797,-2.70507 3.53804,-0.59677 c 1.94592,-0.32822 4.67829,-0.47586 6.07192,-0.32808 3.91861,0.41551 9.78387,1.87569 9.78387,2.43573 0,0.27674 -1.60945,2.8462 -3.57656,5.70992 l -3.57656,5.20676 -2.5175,0 c -1.78777,0 -2.99651,0.32609 -4.17002,1.125 -1.8017,1.22655 -1.98366,1.97519 -0.9388,3.86258 0.62761,1.13369 0.55964,1.39604 -0.80973,3.125 -0.82217,1.03808 -1.70095,1.88742 -1.95285,1.88742 -0.25189,0 -0.45798,-1.35148 -0.45798,-3.00329 z"
     id="path3913"
     inkscape:connector-curvature="0" />
  <path
     style="opacity:0.75862068;fill:#b3b3b3;fill-opacity:1;fill-rule:nonzero;stroke:none"
     d="m 705.92044,287.07644 c -1.5125,-0.55106 -4.30458,-1.20795 -6.20462,-1.45976 -1.90004,-0.2518 -3.54688,-0.55009 -3.65965,-0.66285 -0.11276,-0.11276 0.0779,-0.6581 0.42376,-1.21186 0.53948,-0.86383 0.43686,-1.29686 -0.72245,-3.04869 -0.74317,-1.12302 -1.68554,-2.04185 -2.09413,-2.04185 -0.4086,0 -0.74291,-0.1951 -0.74291,-0.43356 0,-0.65252 3.96658,-3.14611 4.48999,-2.82263 0.25023,0.15466 1.92985,-0.0893 3.73249,-0.5421 2.7487,-0.69045 3.27834,-0.99499 3.28261,-1.8875 0.009,-1.82764 6.26582,-4.22734 7.86272,-3.01549 1.3254,1.00582 2.12381,0.84029 5.1036,-1.0581 l 2.72141,-1.73379 1.1239,1.05585 c 0.97834,0.9191 1.33167,0.98342 2.7282,0.49658 0.88237,-0.30759 1.68323,-0.55926 1.77969,-0.55926 0.0965,0 0.17539,0.9181 0.17539,2.04022 0,1.91599 0.12178,2.08806 2,2.82585 1.86371,0.73208 2,0.92036 2,2.76282 0,1.44672 -0.40617,2.49004 -1.51386,3.88861 -1.32905,1.67807 -2.53706,2.31249 -9.89546,5.19695 -4.60987,1.80705 -8.70989,3.26911 -9.11114,3.24902 -0.40125,-0.0201 -1.96704,-0.4874 -3.47954,-1.03846 z"
     id="path3915"
     inkscape:connector-curvature="0" />
  <path
     style="opacity:0.75862068;fill:#b3b3b3;fill-opacity:1;fill-rule:nonzero;stroke:none"
     d="m 855.49891,155.52643 c -3.84464,-3.76268 -7.1587,-9.32517 -7.75871,-13.02263 -0.25417,-1.56624 -0.0603,-1.88535 2.52114,-4.14955 1.53806,-1.34905 2.79932,-2.59698 2.80279,-2.77317 0.003,-0.17619 -1.6968,-0.40635 -3.77839,-0.51147 l -3.7847,-0.19112 -3.64535,-3.73853 -3.64535,-3.73853 -0.87078,-4.75 c -0.85949,-4.68838 -1.19464,-10.24115 -0.65095,-10.78484 0.15372,-0.15372 2.54078,-0.61518 5.30458,-1.02547 4.80912,-0.71392 5.16815,-0.70179 8.35384,0.28216 4.78286,1.47728 5.00873,1.422 6.52514,-1.59685 0.72521,-1.44375 1.38943,-2.70417 1.47603,-2.80094 0.13021,-0.1455 3.59324,0.87812 6.09724,1.80226 0.46212,0.17055 0.625,-0.67358 0.625,-3.23904 l 0,-3.46971 4.10132,-2.038287 4.10132,-2.038292 1.91766,2.570249 c 1.05472,1.41364 2.20096,2.72879 2.5472,2.92256 0.36074,0.20188 2.17033,-0.61375 4.23838,-1.91037 l 3.60886,-2.262671 4.16424,1.506801 c 2.29033,0.82874 5.97229,1.78358 8.18213,2.12187 l 4.01789,0.61507 0.2888,2.43841 c 0.15884,1.34113 0.17442,2.73647 0.0346,3.10076 -0.41404,1.07897 -7.77334,7.54503 -10.72385,9.42225 l -2.7286,1.736 -6,-1.56787 c -5.63685,-1.47298 -6.24757,-1.75907 -10.09047,-4.72681 -2.46088,-1.90047 -4.32911,-3.01145 -4.6895,-2.78872 -0.64766,0.40027 -0.43871,9.06863 0.24527,10.17534 0.19915,0.32222 2.5587,1.68817 5.24345,3.03544 l 4.88136,2.44958 1.353,3.7097 c 1.08982,2.98808 1.93477,4.29871 4.3438,6.73779 1.64493,1.66546 3.9901,3.78084 5.21148,4.70087 1.22138,0.92002 2.22014,1.78526 2.21946,1.92276 -0.001,0.3507 -6.72421,5.43789 -7.66092,5.79734 -0.42336,0.16246 -1.89773,-0.0793 -3.27639,-0.5372 l -2.50664,-0.83257 1.77866,-3.53194 1.77866,-3.53195 -2.50084,-2.55684 c -2.39135,-2.4449 -2.6991,-3.08901 -3.78977,-7.93184 -0.17031,-0.75625 -0.55719,-1.375 -0.85973,-1.375 -0.30254,0 -1.84193,0.78476 -3.42086,1.74391 -2.80073,1.70136 -2.88695,1.82033 -3.53279,4.875 -0.3641,1.7221 -2.05452,6.73623 -3.75648,11.14251 -1.70196,4.40628 -3.25516,8.96253 -3.45156,10.125 -0.1964,1.16247 -0.53251,2.11358 -0.74692,2.11358 -0.21441,0 -2.05662,-1.63125 -4.0938,-3.625 l 0,0 z"
     id="path3917"
     inkscape:connector-curvature="0" />
  <path
     style="opacity:0.75862068;fill:#b3b3b3;fill-opacity:1;fill-rule:nonzero;stroke:none"
     d="m 1021.9764,227.69997 c -5.8547,-1.26618 -6.1127,-1.37955 -10.354,-4.54854 -4.2559,-3.17991 -4.3501,-3.2957 -4.3707,-5.36873 -0.019,-1.93715 0.1504,-2.22693 1.979,-3.38127 2.2222,-1.40283 2.1934,-1.33212 1.511,-3.71166 -0.7169,-2.49972 1.5432,-6.26877 5.2249,-8.71327 l 2.7481,-1.82467 -0.8224,-1.72473 -0.8225,-1.72472 2.0246,-2.65048 c 3.0949,-4.05166 4.6363,-7.47854 4.6363,-10.30781 l 0,-2.44059 3.875,-1.90748 c 2.5738,-1.26695 5.0503,-3.03122 7.375,-5.25391 1.925,-1.84053 5.1875,-4.35633 7.25,-5.59066 3.6,-2.15446 3.95,-2.25636 8.75,-2.54689 2.75,-0.16645 6.5186,-0.65638 8.3747,-1.08874 2.9112,-0.67813 3.6641,-1.10004 5.4817,-3.0719 2.0033,-2.17333 7.011,-5.19249 8.6124,-5.19249 0.411,0 1.5523,0.38387 2.5361,0.85304 1.7613,0.83988 1.7866,0.89487 1.642,3.56511 l -0.1469,2.71207 -10.0826,4.3484 c -5.5454,2.39162 -13.1954,6.16192 -17,8.37844 l -6.9174,4.03003 -8.1428,10.68145 c -4.4785,5.8748 -9.2598,12.33156 -10.625,14.34835 l -2.4822,3.66688 0,6.22803 c 0,7.44239 0.6463,9.18925 4.2721,11.54784 1.2826,0.83434 2.1399,1.62283 1.905,1.75221 -0.2349,0.12938 -3.129,-0.34911 -6.4314,-1.06331 l 0,0 z"
     id="path3919"
     inkscape:connector-curvature="0" />
  <path
     style="opacity:0.75862068;fill:#b3b3b3;fill-opacity:1;fill-rule:nonzero;stroke:none"
     d="m 1195.4807,124.30283 -7,-2.68752 -2.1276,-3.66141 -2.1276,-3.66141 -4.1768,-1.61479 -4.1769,-1.61479 -1.3286,-3.23528 -1.3286,-3.23528 2.969,-4.09546 c 1.633,-2.252504 3.6351,-5.782961 4.4491,-7.845461 1.4384,-3.644863 1.5972,-3.831767 5.664,-6.66647 l 4.184,-2.91647 2.4247,2.66647 c 1.3336,1.466559 2.9887,3.39406 3.6781,4.283336 l 1.2535,1.616866 -0.8798,2.446544 c -0.8665,2.409773 -0.862,2.496748 0.2995,5.786874 l 1.1792,3.340331 3.768,1.89832 c 3.1371,1.58047 4.0005,2.29404 5.1565,4.26167 l 1.3886,2.36336 -1.045,3.50891 c -0.8843,2.96929 -0.9765,4.04034 -0.5991,6.96454 l 0.4459,3.45562 -2.0351,0.51974 c -1.1192,0.28585 -2.26,0.58488 -2.535,0.6645 -0.275,0.0796 -3.65,-1.06461 -7.5,-2.54274 z"
     id="path3921"
     inkscape:connector-curvature="0" />
  <path
     style="opacity:0.75862068;fill:#b3b3b3;fill-opacity:1;fill-rule:nonzero;stroke:none"
     d="m 1210.1953,135.27643 c 5.9256,-15.95119 5.7826,-15.63214 7.4657,-16.65569 l 1.6187,-0.98438 2.6076,2.13253 c 1.4341,1.1729 3.5606,3.1702 4.7255,4.43845 l 2.1179,2.30592 0,4.02318 0,4.02318 -3.0971,1.04591 c -2.2027,0.74387 -4.3538,1.0459 -7.4489,1.0459 -3.72,0 -4.6679,0.18063 -6.528,1.24398 -1.1968,0.68418 -2.3391,1.24668 -2.5384,1.25 -0.1994,0.003 0.2853,-1.73773 1.077,-3.86898 z"
     id="path3923"
     inkscape:connector-curvature="0" />
  <path
     style="opacity:0.75862068;fill:#b3b3b3;fill-opacity:1;fill-rule:nonzero;stroke:none"
     d="m 1271.825,565.90173 c -0.3936,-0.86381 -1.0064,-1.28116 -1.9586,-1.3338 -2.2079,-0.12208 -7.3043,0.12111 -8.2607,0.39418 -0.6425,0.18344 -0.875,-0.0403 -0.875,-0.84212 0,-1.03038 -0.1809,-1.08042 -3.2088,-0.88762 l -3.2088,0.20433 -0.3331,-2.22124 c -0.2256,-1.50398 -0.7441,-2.56024 -1.6058,-3.27107 -3.1536,-2.60154 -3.6435,-3.26704 -3.6435,-4.94962 0,-1.07147 0.3754,-2.03498 1.0203,-2.61858 0.9333,-0.84462 1.283,-0.86907 4.102,-0.28683 2.8085,0.5801 3.1391,0.55797 3.7297,-0.24971 0.3564,-0.48743 0.648,-1.16466 0.648,-1.50495 0,-1.14189 1.5568,-2.19015 3.2527,-2.19015 1.2572,0 2.5841,-0.6791 5.2592,-2.69153 2.7844,-2.09466 4.121,-2.7636 6.0276,-3.01651 1.9653,-0.26071 2.5075,-0.54418 2.7418,-1.43347 0.1607,-0.60967 1.5118,-1.96087 3.0025,-3.00266 2.2481,-1.57114 2.8814,-1.80262 3.7133,-1.3574 0.5516,0.29521 1.0029,0.83216 1.0029,1.19322 0,0.36106 0.8916,1.05855 1.9814,1.54998 1.6892,0.7617 1.9079,1.03104 1.4824,1.82593 -0.2744,0.51284 -0.9118,0.93244 -1.4164,0.93244 -0.6571,0 -1.0916,0.62219 -1.5314,2.19284 -0.526,1.87878 -0.4979,2.36997 0.1964,3.42955 0.4456,0.68019 0.6784,1.58041 0.5172,2.0005 -0.189,0.49247 0.2702,1.1649 1.2926,1.89292 l 1.5857,1.12913 -1.4787,0.62175 c -0.8133,0.34196 -2.0131,1.4906 -2.6664,2.55253 -0.6532,1.06193 -2.0638,2.88499 -3.1347,4.05124 -1.4147,1.54064 -1.8709,2.412 -1.6683,3.1866 0.2066,0.79018 -0.2633,1.62258 -1.8155,3.21587 -2.6947,2.766 -3.9827,3.16846 -4.75,1.48425 l 0,0 z"
     id="path3925"
     inkscape:connector-curvature="0" />
  <path
     style="opacity:0.75862068;fill:#b3b3b3;fill-opacity:1;fill-rule:nonzero;stroke:none"
     d="m 1220.1624,547.14204 c -4.4207,-2.26059 -6.0256,-4.36306 -7.9928,-10.47129 -0.9978,-3.09783 -1.5696,-4.0023 -3.8458,-6.08257 -1.4705,-1.344 -3.0841,-2.44363 -3.5858,-2.44363 -0.7814,0 -0.8741,-0.30451 -0.6465,-2.125 0.3686,-2.94945 0.9394,-3.321 1.8295,-1.1908 0.5198,1.24399 1.079,1.8158 1.7758,1.8158 0.7179,0 1.3888,0.73362 2.2811,2.49441 1.0181,2.00926 1.7734,2.75156 3.8834,3.81655 1.4407,0.72718 4.1339,2.58595 5.985,4.13059 l 3.3655,2.80845 0.01,3.39259 c 0.01,2.26748 0.2772,3.80131 0.8169,4.625 1.065,1.62535 0.6458,1.54206 -3.8758,-0.7701 l 0,0 z"
     id="path3927"
     inkscape:connector-curvature="0" />
  <path
     style="opacity:0.75862068;fill:#b3b3b3;fill-opacity:1;fill-rule:nonzero;stroke:none"
     d="m 1228.4807,570.75444 c -6.5576,-3.65249 -9.6847,-6.09134 -13.1875,-10.28512 -1.9704,-2.35904 -4.402,-4.91422 -5.4036,-5.67818 -1.0652,-0.81241 -2.2861,-2.4404 -2.9412,-3.92167 -0.9559,-2.16157 -1.4201,-2.63166 -3.1679,-3.20849 -1.5658,-0.51675 -2.4177,-1.25224 -3.6191,-3.12441 -1.1848,-1.84633 -2.2918,-2.81231 -4.501,-3.92749 -3.9483,-1.99314 -3.8311,-2.69331 0.385,-2.2996 3.2803,0.30631 3.3866,0.36432 10.2148,5.5723 3.795,2.89452 7.3708,5.26277 7.9462,5.26277 1.8736,0 7.353,2.79103 7.641,3.89206 0.1546,0.59146 0.7667,1.09384 1.4504,1.19058 0.9832,0.1391 1.1829,0.45887 1.1829,1.89394 0,1.58526 0.155,1.76363 1.894,2.17917 1.5901,0.37995 2.093,0.84512 3.1335,2.89842 0.8405,1.65882 1.5508,2.44583 2.2074,2.44583 1.3636,0 3.5208,1.05544 3.4854,1.70526 -0.016,0.2996 -0.5227,1.89474 -1.1253,3.54474 -1.3135,3.59687 -2.0418,3.83897 -5.595,1.85989 z"
     id="path3929"
     inkscape:connector-curvature="0" />
  <path
     style="opacity:0.75862068;fill:#b3b3b3;fill-opacity:1;fill-rule:nonzero;stroke:none"
     d="m 975.90653,637.35428 c -1.98655,-1.19838 -2.12098,-1.44067 -3.18216,-5.73538 -0.93748,-3.79403 -1.00505,-4.61804 -0.43911,-5.35424 0.36789,-0.47856 1.5447,-1.945 2.61514,-3.25875 l 1.94625,-2.38863 -1.08623,-4.33094 -1.08623,-4.33094 1.40325,-1.95984 c 1.24009,-1.73195 2.10094,-2.22103 7.40326,-4.20611 6.12794,-2.29417 7.25,-3.04836 7.25,-4.87311 0,-0.79276 0.58894,-1.24624 2.5,-1.92499 2.08145,-0.73927 2.5,-1.09376 2.5,-2.11736 0,-2.84648 1.90357,-0.54247 3.17881,3.84751 1.14649,3.94688 1.08427,4.42305 -0.57824,4.42305 -1.36186,0 -1.429,0.13108 -2.50047,4.88221 -1.00661,4.46348 -4.37178,13.65062 -8.74259,23.86779 -1.87656,4.38663 -2.17333,4.58879 -6.85751,4.67133 -1.56711,0.0276 -2.87952,-0.34011 -4.32417,-1.2116 l 0,0 z"
     id="path3931"
     inkscape:connector-curvature="0" />
  <path
     style="opacity:0.75862068;fill:#b3b3b3;fill-opacity:1;fill-rule:nonzero;stroke:none"
     d=""
     id="path3933"
     inkscape:connector-curvature="0" />
  <path
     style="opacity:0.75862068;fill:#b3b3b3;fill-opacity:1;fill-rule:nonzero;stroke:none"
     d="m 1126.4915,532.0403 c -0.8018,-2.85748 -0.6993,-6.56572 0.1967,-7.11951 0.2038,-0.12595 1.683,1.09732 3.2872,2.71838 2.7713,2.80051 2.8934,3.02829 2.4509,4.57127 -0.3985,1.38946 -0.8003,1.70924 -2.7828,2.21498 l -2.317,0.59107 -0.835,-2.97619 z"
     id="path3935"
     inkscape:connector-curvature="0" />
  <path
     style="opacity:0.75862068;fill:#b3b3b3;fill-opacity:1;fill-rule:nonzero;stroke:none"
     d="m 1412.9137,586.58005 c -2.3576,-0.39148 -3.1148,-0.84307 -6.0389,-3.60151 -2.7222,-2.568 -3.8995,-3.30997 -6.3372,-3.99395 -3.9327,-1.10347 -4.3623,-1.07441 -7.2356,0.48942 -1.7979,0.97855 -2.4426,1.62431 -2.4426,2.44651 0,1.29736 -0.8607,1.72872 -3.4159,1.7121 -2.9705,-0.0193 -5.3567,-0.76368 -7.3699,-2.29899 -1.6355,-1.24722 -2.2422,-1.41626 -4.5507,-1.26788 -2.7006,0.17358 -3.4842,-0.41226 -1.8068,-1.35096 0.7936,-0.44415 0.7689,-0.66685 -0.3354,-3.02459 -0.6556,-1.39983 -1.5534,-2.87214 -1.995,-3.2718 -0.4416,-0.39966 -3.5907,-1.69358 -6.998,-2.87538 -5.7776,-2.00393 -8.0577,-3.39847 -5.5565,-3.39847 0.5803,0 3.1079,-1.2375 5.6168,-2.75 2.5089,-1.5125 4.7438,-2.75 4.9664,-2.75 0.2226,0 5.4201,1.13337 11.5499,2.51861 12.8484,2.90355 18.0988,5.06998 20.4563,8.44087 0.9803,1.40165 1.8986,2.0393 3.6379,2.52629 2.1543,0.60315 3.5564,1.51423 2.3304,1.51423 -0.2913,0 -0.5295,0.52436 -0.5295,1.16524 0,0.81801 0.7077,1.67218 2.375,2.86644 3.3449,2.39601 8.1049,7.61806 6.7542,7.40987 -0.2086,-0.0322 -1.5923,-0.25987 -3.0749,-0.50605 z"
     id="path3937"
     inkscape:connector-curvature="0" />
  <path
     style="opacity:0.75862068;fill:#b3b3b3;fill-opacity:1;fill-rule:nonzero;stroke:none"
     d="m 1526.1236,700.16754 c -0.266,-0.4303 -0.092,-1.7126 0.5584,-4.12445 0.1627,-0.6029 -0.3617,-1.15322 -1.7964,-1.88516 -2.3081,-1.17752 -2.4165,-1.45701 -1.0262,-2.64737 0.55,-0.47092 1.0024,-1.47718 1.0055,-2.23612 0,-0.75894 0.1444,-2.22066 0.3143,-3.24827 0.283,-1.71198 0.4186,-1.84277 1.6195,-1.56244 0.7209,0.16827 1.6482,0.71158 2.0607,1.20737 0.4299,0.51673 1.995,1.12628 3.6674,1.42831 2.4184,0.43676 3.1791,0.3916 4.4469,-0.26401 l 1.5295,-0.7909 -0.3454,2.16004 c -0.369,2.30743 -0.9161,2.92017 -2.6181,2.93235 -1.5374,0.011 -2.7189,1.2454 -5.3911,5.63266 -2.2019,3.61492 -3.3118,4.55198 -4.025,3.39799 l 0,0 z"
     id="path3939"
     inkscape:connector-curvature="0" />
  <path
     style="opacity:0.75862068;fill:#b3b3b3;fill-opacity:1;fill-rule:nonzero;stroke:none"
     d="m 1496.8594,723.28956 c -1.7875,-0.61029 -3.7563,-1.11757 -4.375,-1.12731 -0.6188,-0.01 -1.125,-0.25609 -1.125,-0.54746 0,-0.29136 1.5555,-2.37261 3.4566,-4.625 3.103,-3.67619 4.0375,-4.41329 9.1323,-7.20341 3.9303,-2.15238 5.9511,-3.5746 6.5716,-4.625 0.6089,-1.0308 1.2875,-1.51683 2.1177,-1.51683 0.672,0 1.2218,-0.23223 1.2218,-0.51606 0,-0.28383 0.3335,-1.31444 0.7413,-2.29024 l 0.7413,-1.77418 1.5732,1.12022 c 1.233,0.878 1.7616,1.00257 2.4445,0.57608 0.6324,-0.39494 1.026,-0.38945 1.4355,0.02 0.9253,0.92533 0.7009,1.37413 -2.4727,4.94501 -1.7902,2.0143 -2.9683,3.77322 -2.8698,4.28472 0.1217,0.63181 -0.6073,1.23395 -2.6814,2.21486 -2.6359,1.24658 -3.0438,1.68102 -5.4623,5.8188 -2.331,3.98788 -2.8618,4.57352 -4.9067,5.41351 -2.2786,0.93598 -2.3133,0.93493 -5.5429,-0.16772 z"
     id="path3941"
     inkscape:connector-curvature="0" />
  <path
     style="opacity:0.75862068;fill:#b3b3b3;fill-opacity:1;fill-rule:nonzero;stroke:none"
     d=""
     id="path3943"
     inkscape:connector-curvature="0" />
  <path
     style="opacity:0.75862068;fill:#b3b3b3;fill-opacity:1;fill-rule:nonzero;stroke:none"
     d="m 1404.5226,708.756 c -0.5079,-0.32302 -3.8313,-8.61145 -3.4529,-8.61145 0.077,0 0.8555,0.24926 1.7294,0.55391 1.184,0.41276 2.4192,0.39725 4.8471,-0.0609 1.7919,-0.33812 3.3878,-0.48508 3.5463,-0.32657 0.1585,0.15851 0.1305,1.7609 -0.062,3.56086 -0.3119,2.91232 -0.4699,3.27388 -1.4356,3.28378 -0.5969,0.006 -1.6477,0.45111 -2.3352,0.98888 -1.3574,1.06172 -1.9337,1.18593 -2.8368,0.61145 z"
     id="path3945"
     inkscape:connector-curvature="0" />
  <path
     style="opacity:0.75862068;fill:#b3b3b3;fill-opacity:1;fill-rule:nonzero;stroke:none"
     d="m 1256.1094,580.36356 c -16.3664,-2.10473 -24.5265,-4.37427 -19.9106,-5.53762 0.9212,-0.23216 2.885,0.0548 5.6606,0.82716 4.5736,1.27272 13.4101,1.94581 13.9557,1.06304 0.5471,-0.88524 5.1618,0.44006 6.9367,1.99215 1.2732,1.11345 2.1349,1.43626 3.8341,1.43626 1.2054,0 2.5476,0.13657 2.9826,0.30349 0.9342,0.3585 1.0718,1.72105 0.1659,1.64192 -0.3438,-0.03 -6.475,-0.8069 -13.625,-1.7264 z"
     id="path3947"
     inkscape:connector-curvature="0" />
  <path
     style="opacity:0.75862068;fill:#b3b3b3;fill-opacity:1;fill-rule:nonzero;stroke:none"
     d=""
     id="path3949"
     inkscape:connector-curvature="0" />
  <path
     style="opacity:0.75862068;fill:#b3b3b3;fill-opacity:1;fill-rule:nonzero;stroke:none"
     d="m 1300.5618,566.09065 c -0.5238,-0.57965 -0.8869,-1.45098 -0.8068,-1.93629 0.1884,-1.14137 -1.5,-1.59573 -3.4297,-0.923 -1.1671,0.40684 -1.4659,0.80681 -1.4659,1.9621 0,1.59839 -0.5443,1.85275 -1.5,0.70109 -0.3424,-0.4125 -1.0449,-0.75 -1.5613,-0.75 -1.2329,0 -1.1855,-0.54623 0.3017,-3.48124 1.4994,-2.95884 1.8284,-3.19377 3.4425,-2.45832 1.2297,0.56026 1.5781,0.51806 7.0671,-0.85599 0.7465,-0.18687 0.588,0.11327 -0.625,1.18402 -1.9349,1.70783 -1.962,1.93423 -0.4569,3.81516 0.7322,0.91504 1.0802,1.88764 0.9392,2.625 -0.2764,1.4461 -0.6815,1.47107 -1.9049,0.11747 l 0,0 z"
     id="path3951"
     inkscape:connector-curvature="0" />
  <path
     style="opacity:0.75862068;fill:#b3b3b3;fill-opacity:1;fill-rule:nonzero;stroke:none"
     d="m 1359.8482,439.13767 c -0.8858,-0.54745 -1.0163,-4.99312 -0.1466,-4.99312 0.3402,0 1.3586,-1.34898 2.2632,-2.99774 0.9954,-1.81447 1.8972,-2.90387 2.2845,-2.75993 0.9443,0.35085 7.1489,-2.10907 8.546,-3.38821 2.5782,-2.36061 5.5603,-7.02144 6.6427,-10.38228 0.9058,-2.81225 1.3132,-3.47039 2.1448,-3.46419 1.6725,0.0125 2.1225,0.59126 2.7893,3.58772 0.7521,3.37988 0.1757,5.34633 -2.0267,6.91457 -1.2202,0.86888 -1.4537,1.49616 -1.9955,5.36202 -0.6123,4.36876 -1.5814,7.12804 -2.5034,7.12804 -0.2679,0 -0.4871,-0.3375 -0.4871,-0.75 0,-0.4125 -0.3938,-0.74013 -0.875,-0.72806 -1.3661,0.0343 -4.5986,1.29915 -5.5725,2.18052 -1.1204,1.01393 -3.1749,1.01848 -5.1225,0.0114 -2.0492,-1.0597 -2.93,-0.61992 -2.93,1.46298 0,1.91222 -1.7801,3.57714 -3.0112,2.81632 z"
     id="path3953"
     inkscape:connector-curvature="0" />
  <path
     style="opacity:0.75862068;fill:#b3b3b3;fill-opacity:1;fill-rule:nonzero;stroke:none"
     d="m 1387.1817,368.26955 c -0.1683,-2.95625 -0.4482,-7.7375 -0.6218,-10.625 -0.2972,-4.94016 -0.2527,-5.30685 0.7536,-6.21319 0.6315,-0.56875 1.2358,-0.7735 1.4755,-0.5 0.2234,0.25475 0.8027,2.37124 1.2874,4.70331 0.4847,2.33206 1.759,6.70089 2.8319,9.7085 1.0729,3.00762 1.8945,5.49871 1.8259,5.53576 -0.069,0.037 -1.4109,0.45855 -2.9828,0.93667 -1.5719,0.47812 -2.9914,1.08523 -3.1545,1.34913 -0.7816,1.26466 -1.1338,0.0465 -1.4152,-4.89518 z"
     id="path3955"
     inkscape:connector-curvature="0" />
  <path
     style="opacity:0.75862068;fill:#b3b3b3;fill-opacity:1;fill-rule:nonzero;stroke:none"
     d="m 1388.6806,403.58293 c -1.5357,-0.81011 -2.4272,-0.94887 -4.375,-0.68099 -1.7438,0.23984 -2.4462,0.16596 -2.4462,-0.25728 0,-0.32655 0.45,-0.71141 1,-0.85524 0.55,-0.14383 1.0015,-0.29151 1.0034,-0.32819 0,-0.0367 0.5688,-1.73218 1.2596,-3.76778 0.6908,-2.0356 1.1241,-4.11685 0.9628,-4.625 -0.4888,-1.54007 0.498,-1.05778 3.7225,1.81944 1.691,1.50884 3.6881,2.87296 4.4381,3.03138 0.75,0.15841 1.8633,0.38906 2.4741,0.51255 0.6108,0.1235 1.3481,0.66826 1.6383,1.2106 0.4748,0.88717 0.3301,1.01766 -1.4428,1.30116 -1.318,0.21075 -2.5139,0.87572 -3.6114,2.00803 -1.9022,1.96257 -2.0591,1.984 -4.6234,0.63132 l 0,0 z"
     id="path3957"
     inkscape:connector-curvature="0" />
  <path
     style="opacity:0.75862068;fill:#b3b3b3;fill-opacity:1;fill-rule:nonzero;stroke:none"
     d="m 1369.2132,181.40061 c -1.8882,-3.22792 -2.1001,-4.39497 -1.5398,-8.48281 0.2859,-2.08566 0.5529,-2.45008 2.9716,-4.056 l 2.6574,-1.76445 3.955,2.98622 c 2.1752,1.64242 4.186,2.98621 4.4684,2.98621 0.2824,0 1.4575,-1.25043 2.6114,-2.77874 l 2.098,-2.77875 2.2009,2.02875 c 1.5739,1.45082 2.6371,2.02874 3.732,2.02874 0.8421,0 2.4221,0.45457 3.5112,1.01016 3.0971,1.58005 2.7499,2.78928 -1.7802,6.1989 -4.6517,3.50114 -4.8514,3.57686 -6.6431,2.51852 -1.4284,-0.84381 -1.5551,-0.82172 -6.922,1.20644 -3.0849,1.16576 -6.3385,2.06598 -7.467,2.06598 -1.9278,0 -2.0666,-0.11415 -3.8538,-3.16917 z"
     id="path3959"
     inkscape:connector-curvature="0" />
     </g>
</svg>
